<mxfile host="Electron" modified="2024-04-28T16:51:34.876Z" agent="Mozilla/5.0 (Windows NT 10.0; Win64; x64) AppleWebKit/537.36 (KHTML, like Gecko) draw.io/24.2.5 Chrome/120.0.6099.109 Electron/28.1.0 Safari/537.36" etag="3vc9o81TYKR-DiOQk40l" version="24.2.5" type="device">
  <diagram name="Page-1" id="5oSSRpmhrWpadgZZW0cs">
    <mxGraphModel dx="482" dy="282" grid="1" gridSize="10" guides="1" tooltips="1" connect="1" arrows="1" fold="1" page="1" pageScale="1" pageWidth="850" pageHeight="1100" math="0" shadow="0">
      <root>
        <mxCell id="0" />
        <mxCell id="1" parent="0" />
        <mxCell id="t38KisBEw0-XXumSd1B3-4" style="rounded=0;orthogonalLoop=1;jettySize=auto;html=1;entryX=0;entryY=0.5;entryDx=0;entryDy=0;strokeColor=#CC0000;" parent="1" source="t38KisBEw0-XXumSd1B3-1" target="t38KisBEw0-XXumSd1B3-3" edge="1">
          <mxGeometry relative="1" as="geometry" />
        </mxCell>
        <mxCell id="t38KisBEw0-XXumSd1B3-1" value="0" style="whiteSpace=wrap;html=1;aspect=fixed;" parent="1" vertex="1">
          <mxGeometry x="40" y="240" width="40" height="40" as="geometry" />
        </mxCell>
        <mxCell id="t38KisBEw0-XXumSd1B3-7" style="rounded=0;orthogonalLoop=1;jettySize=auto;html=1;exitX=1;exitY=0.5;exitDx=0;exitDy=0;entryX=0;entryY=0.5;entryDx=0;entryDy=0;strokeColor=#CC0000;" parent="1" source="t38KisBEw0-XXumSd1B3-3" target="t38KisBEw0-XXumSd1B3-5" edge="1">
          <mxGeometry relative="1" as="geometry" />
        </mxCell>
        <mxCell id="t38KisBEw0-XXumSd1B3-3" value="1" style="ellipse;whiteSpace=wrap;html=1;aspect=fixed;" parent="1" vertex="1">
          <mxGeometry x="120" y="240" width="40" height="40" as="geometry" />
        </mxCell>
        <mxCell id="t38KisBEw0-XXumSd1B3-10" style="rounded=0;orthogonalLoop=1;jettySize=auto;html=1;entryX=0;entryY=0.5;entryDx=0;entryDy=0;" parent="1" source="t38KisBEw0-XXumSd1B3-5" target="t38KisBEw0-XXumSd1B3-9" edge="1">
          <mxGeometry relative="1" as="geometry" />
        </mxCell>
        <mxCell id="t38KisBEw0-XXumSd1B3-11" style="rounded=0;orthogonalLoop=1;jettySize=auto;html=1;exitX=1;exitY=1;exitDx=0;exitDy=0;entryX=0;entryY=0.5;entryDx=0;entryDy=0;strokeColor=#CC0000;" parent="1" source="t38KisBEw0-XXumSd1B3-5" target="t38KisBEw0-XXumSd1B3-8" edge="1">
          <mxGeometry relative="1" as="geometry" />
        </mxCell>
        <mxCell id="t38KisBEw0-XXumSd1B3-5" value="2" style="ellipse;whiteSpace=wrap;html=1;aspect=fixed;" parent="1" vertex="1">
          <mxGeometry x="200" y="240" width="40" height="40" as="geometry" />
        </mxCell>
        <mxCell id="t38KisBEw0-XXumSd1B3-6" value="A1(1)/0" style="text;html=1;align=center;verticalAlign=middle;resizable=0;points=[];autosize=1;strokeColor=none;fillColor=none;" parent="1" vertex="1">
          <mxGeometry x="72" y="229" width="60" height="30" as="geometry" />
        </mxCell>
        <mxCell id="t38KisBEw0-XXumSd1B3-16" style="rounded=0;orthogonalLoop=1;jettySize=auto;html=1;exitX=1;exitY=0.5;exitDx=0;exitDy=0;entryX=0;entryY=0.5;entryDx=0;entryDy=0;strokeColor=#CC0000;" parent="1" source="t38KisBEw0-XXumSd1B3-8" target="t38KisBEw0-XXumSd1B3-15" edge="1">
          <mxGeometry relative="1" as="geometry" />
        </mxCell>
        <mxCell id="t38KisBEw0-XXumSd1B3-8" value="4" style="ellipse;whiteSpace=wrap;html=1;aspect=fixed;" parent="1" vertex="1">
          <mxGeometry x="280" y="320" width="40" height="40" as="geometry" />
        </mxCell>
        <mxCell id="t38KisBEw0-XXumSd1B3-12" style="rounded=0;orthogonalLoop=1;jettySize=auto;html=1;exitX=0.5;exitY=1;exitDx=0;exitDy=0;entryX=0.5;entryY=0;entryDx=0;entryDy=0;dashed=1;" parent="1" source="t38KisBEw0-XXumSd1B3-9" target="t38KisBEw0-XXumSd1B3-8" edge="1">
          <mxGeometry relative="1" as="geometry" />
        </mxCell>
        <mxCell id="t38KisBEw0-XXumSd1B3-9" value="3" style="ellipse;whiteSpace=wrap;html=1;aspect=fixed;" parent="1" vertex="1">
          <mxGeometry x="280" y="160" width="40" height="40" as="geometry" />
        </mxCell>
        <mxCell id="t38KisBEw0-XXumSd1B3-32" style="rounded=0;orthogonalLoop=1;jettySize=auto;html=1;exitX=1;exitY=0;exitDx=0;exitDy=0;entryX=0;entryY=0.5;entryDx=0;entryDy=0;" parent="1" source="t38KisBEw0-XXumSd1B3-13" target="t38KisBEw0-XXumSd1B3-31" edge="1">
          <mxGeometry relative="1" as="geometry" />
        </mxCell>
        <mxCell id="t38KisBEw0-XXumSd1B3-33" style="rounded=0;orthogonalLoop=1;jettySize=auto;html=1;exitX=1;exitY=1;exitDx=0;exitDy=0;entryX=0;entryY=0.5;entryDx=0;entryDy=0;strokeColor=#CC0000;" parent="1" source="t38KisBEw0-XXumSd1B3-13" target="t38KisBEw0-XXumSd1B3-29" edge="1">
          <mxGeometry relative="1" as="geometry" />
        </mxCell>
        <mxCell id="t38KisBEw0-XXumSd1B3-13" value="7" style="ellipse;whiteSpace=wrap;html=1;aspect=fixed;" parent="1" vertex="1">
          <mxGeometry x="439" y="400" width="40" height="40" as="geometry" />
        </mxCell>
        <mxCell id="t38KisBEw0-XXumSd1B3-18" style="rounded=0;orthogonalLoop=1;jettySize=auto;html=1;exitX=1;exitY=1;exitDx=0;exitDy=0;entryX=0;entryY=0.5;entryDx=0;entryDy=0;strokeColor=#CC0000;" parent="1" source="t38KisBEw0-XXumSd1B3-15" target="t38KisBEw0-XXumSd1B3-13" edge="1">
          <mxGeometry relative="1" as="geometry" />
        </mxCell>
        <mxCell id="t38KisBEw0-XXumSd1B3-74" style="edgeStyle=none;rounded=0;orthogonalLoop=1;jettySize=auto;html=1;exitX=1;exitY=0;exitDx=0;exitDy=0;entryX=0;entryY=0.5;entryDx=0;entryDy=0;" parent="1" source="t38KisBEw0-XXumSd1B3-15" target="t38KisBEw0-XXumSd1B3-72" edge="1">
          <mxGeometry relative="1" as="geometry" />
        </mxCell>
        <mxCell id="t38KisBEw0-XXumSd1B3-15" value="5" style="ellipse;whiteSpace=wrap;html=1;aspect=fixed;" parent="1" vertex="1">
          <mxGeometry x="360" y="320" width="40" height="40" as="geometry" />
        </mxCell>
        <mxCell id="t38KisBEw0-XXumSd1B3-19" value="A2(1)/0" style="text;html=1;align=center;verticalAlign=middle;resizable=0;points=[];autosize=1;strokeColor=none;fillColor=none;" parent="1" vertex="1">
          <mxGeometry x="151" y="229" width="60" height="30" as="geometry" />
        </mxCell>
        <mxCell id="t38KisBEw0-XXumSd1B3-23" value="A3(1)/0" style="text;html=1;align=center;verticalAlign=middle;resizable=0;points=[];autosize=1;strokeColor=none;fillColor=none;rotation=0;" parent="1" vertex="1">
          <mxGeometry x="205" y="188" width="60" height="30" as="geometry" />
        </mxCell>
        <mxCell id="t38KisBEw0-XXumSd1B3-24" value="A4(1)/0" style="text;html=1;align=center;verticalAlign=middle;resizable=0;points=[];autosize=1;strokeColor=none;fillColor=none;" parent="1" vertex="1">
          <mxGeometry x="201" y="298" width="60" height="30" as="geometry" />
        </mxCell>
        <mxCell id="t38KisBEw0-XXumSd1B3-25" value="A5(1)/0" style="text;html=1;align=center;verticalAlign=middle;resizable=0;points=[];autosize=1;strokeColor=none;fillColor=none;" parent="1" vertex="1">
          <mxGeometry x="311" y="303" width="60" height="30" as="geometry" />
        </mxCell>
        <mxCell id="t38KisBEw0-XXumSd1B3-26" value="A6(1)/0" style="text;html=1;align=center;verticalAlign=middle;resizable=0;points=[];autosize=1;strokeColor=none;fillColor=none;" parent="1" vertex="1">
          <mxGeometry x="365" y="268" width="60" height="30" as="geometry" />
        </mxCell>
        <mxCell id="t38KisBEw0-XXumSd1B3-27" value="A7(1)/0" style="text;html=1;align=center;verticalAlign=middle;resizable=0;points=[];autosize=1;strokeColor=none;fillColor=none;" parent="1" vertex="1">
          <mxGeometry x="355" y="378" width="60" height="30" as="geometry" />
        </mxCell>
        <mxCell id="t38KisBEw0-XXumSd1B3-37" style="rounded=0;orthogonalLoop=1;jettySize=auto;html=1;exitX=1;exitY=0.5;exitDx=0;exitDy=0;entryX=0;entryY=0.5;entryDx=0;entryDy=0;strokeColor=#CC0000;" parent="1" source="t38KisBEw0-XXumSd1B3-29" target="t38KisBEw0-XXumSd1B3-30" edge="1">
          <mxGeometry relative="1" as="geometry" />
        </mxCell>
        <mxCell id="t38KisBEw0-XXumSd1B3-29" value="9" style="ellipse;whiteSpace=wrap;html=1;aspect=fixed;" parent="1" vertex="1">
          <mxGeometry x="520" y="480" width="40" height="40" as="geometry" />
        </mxCell>
        <mxCell id="t38KisBEw0-XXumSd1B3-43" style="rounded=0;orthogonalLoop=1;jettySize=auto;html=1;exitX=0.5;exitY=0;exitDx=0;exitDy=0;entryX=0.5;entryY=1;entryDx=0;entryDy=0;strokeColor=#CC0000;" parent="1" source="t38KisBEw0-XXumSd1B3-30" target="t38KisBEw0-XXumSd1B3-41" edge="1">
          <mxGeometry relative="1" as="geometry" />
        </mxCell>
        <mxCell id="t38KisBEw0-XXumSd1B3-30" value="10" style="ellipse;whiteSpace=wrap;html=1;aspect=fixed;" parent="1" vertex="1">
          <mxGeometry x="600" y="480" width="40" height="40" as="geometry" />
        </mxCell>
        <mxCell id="t38KisBEw0-XXumSd1B3-36" style="rounded=0;orthogonalLoop=1;jettySize=auto;html=1;exitX=0.5;exitY=1;exitDx=0;exitDy=0;entryX=0.5;entryY=0;entryDx=0;entryDy=0;dashed=1;" parent="1" source="t38KisBEw0-XXumSd1B3-31" target="t38KisBEw0-XXumSd1B3-29" edge="1">
          <mxGeometry relative="1" as="geometry" />
        </mxCell>
        <mxCell id="t38KisBEw0-XXumSd1B3-31" value="8" style="ellipse;whiteSpace=wrap;html=1;aspect=fixed;" parent="1" vertex="1">
          <mxGeometry x="520" y="320" width="40" height="40" as="geometry" />
        </mxCell>
        <mxCell id="t38KisBEw0-XXumSd1B3-34" value="A8(2)/0" style="text;html=1;align=center;verticalAlign=middle;resizable=0;points=[];autosize=1;strokeColor=none;fillColor=none;" parent="1" vertex="1">
          <mxGeometry x="451" y="348" width="60" height="30" as="geometry" />
        </mxCell>
        <mxCell id="t38KisBEw0-XXumSd1B3-35" value="A9(2)/0" style="text;html=1;align=center;verticalAlign=middle;resizable=0;points=[];autosize=1;strokeColor=none;fillColor=none;" parent="1" vertex="1">
          <mxGeometry x="434" y="450" width="60" height="30" as="geometry" />
        </mxCell>
        <mxCell id="t38KisBEw0-XXumSd1B3-38" value="A10(1&lt;span style=&quot;color: rgba(0, 0, 0, 0); font-family: monospace; font-size: 0px; text-align: start;&quot;&gt;3&lt;/span&gt;&lt;span style=&quot;color: rgba(0, 0, 0, 0); font-family: monospace; font-size: 0px; text-align: start;&quot;&gt;CmxGraphModel%3E%3Croot%3E%3CmxCell%20id%3D%220%22%2F%3E%3CmxCell%20id%3D%221%22%20parent%3D%220%22%2F%3E%3CmxCell%20id%3D%222%22%20value%3D%22%22%20style%3D%22ellipse%3BwhiteSpace%3Dwrap%3Bhtml%3D1%3Baspect%3Dfixed%3B%22%20vertex%3D%221%22%20parent%3D%221%22%3E%3CmxGeometry%20x%3D%22280%22%20y%3D%22240%22%20width%3D%2240%22%20height%3D%2240%22%20as%3D%22geometry%22%2F%3E%3C%2FmxCell%3E%3C%2Froot%3E%3C%2FmxGraphModel%3E&lt;/span&gt;&lt;span style=&quot;color: rgba(0, 0, 0, 0); font-family: monospace; font-size: 0px; text-align: start;&quot;&gt;%3CmxGraphModel%3E%3Croot%3E%3CmxCell%20id%3D%220%22%2F%3E%3CmxCell%20id%3D%221%22%20parent%3D%220%22%2F%3E%3CmxCell%20id%3D%222%22%20value%3D%22%22%20style%3D%22ellipse%3BwhiteSpace%3Dwrap%3Bhtml%3D1%3Baspect%3Dfixed%3B%22%20vertex%3D%221%22%20parent%3D%221%22%3E%3CmxGeometry%20x%3D%22280%22%20y%3D%22240%22%20width%3D%2240%22%20height%3D%2240%22%20as%3D%22geometry%22%2F%3E%3C%2FmxCell%3E%3C%2Froot%3E%3C%2FmxGraphModel%3E&lt;/span&gt;&lt;span style=&quot;color: rgba(0, 0, 0, 0); font-family: monospace; font-size: 0px; text-align: start;&quot;&gt;%3CmxGraphModel%3E%3Croot%3E%3CmxCell%20id%3D%220%22%2F%3E%3CmxCell%20id%3D%221%22%20parent%3D%220%22%2F%3E%3CmxCell%20id%3D%222%22%20value%3D%22%22%20style%3D%22ellipse%3BwhiteSpace%3Dwrap%3Bhtml%3D1%3Baspect%3Dfixed%3B%22%20vertex%3D%221%22%20parent%3D%221%22%3E%3CmxGeometry%20x%3D%22280%22%20y%3D%22240%22%20width%3D%2240%22%20height%3D%2240%22%20as%3D%22geometry%22%2F%3E%3C%2FmxCell%3E%3C%2Froot%3E%3C%2FmxGraphModel%3E&lt;/span&gt;)/0" style="text;html=1;align=center;verticalAlign=middle;resizable=0;points=[];autosize=1;strokeColor=none;fillColor=none;" parent="1" vertex="1">
          <mxGeometry x="546" y="469" width="70" height="30" as="geometry" />
        </mxCell>
        <mxCell id="t38KisBEw0-XXumSd1B3-47" style="rounded=0;orthogonalLoop=1;jettySize=auto;html=1;exitX=0.5;exitY=0;exitDx=0;exitDy=0;entryX=0.5;entryY=1;entryDx=0;entryDy=0;strokeColor=#CC0000;" parent="1" source="t38KisBEw0-XXumSd1B3-39" target="t38KisBEw0-XXumSd1B3-40" edge="1">
          <mxGeometry relative="1" as="geometry" />
        </mxCell>
        <mxCell id="t38KisBEw0-XXumSd1B3-39" value="12" style="ellipse;whiteSpace=wrap;html=1;aspect=fixed;" parent="1" vertex="1">
          <mxGeometry x="680" y="360" width="40" height="40" as="geometry" />
        </mxCell>
        <mxCell id="t38KisBEw0-XXumSd1B3-52" style="rounded=0;orthogonalLoop=1;jettySize=auto;html=1;exitX=1;exitY=0;exitDx=0;exitDy=0;entryX=0;entryY=0.5;entryDx=0;entryDy=0;" parent="1" source="t38KisBEw0-XXumSd1B3-40" target="t38KisBEw0-XXumSd1B3-49" edge="1">
          <mxGeometry relative="1" as="geometry" />
        </mxCell>
        <mxCell id="t38KisBEw0-XXumSd1B3-53" style="rounded=0;orthogonalLoop=1;jettySize=auto;html=1;exitX=1;exitY=1;exitDx=0;exitDy=0;entryX=0;entryY=0.5;entryDx=0;entryDy=0;strokeColor=#CC0000;" parent="1" source="t38KisBEw0-XXumSd1B3-40" target="t38KisBEw0-XXumSd1B3-51" edge="1">
          <mxGeometry relative="1" as="geometry" />
        </mxCell>
        <mxCell id="t38KisBEw0-XXumSd1B3-40" value="13" style="ellipse;whiteSpace=wrap;html=1;aspect=fixed;" parent="1" vertex="1">
          <mxGeometry x="680" y="240" width="40" height="40" as="geometry" />
        </mxCell>
        <mxCell id="t38KisBEw0-XXumSd1B3-44" style="rounded=0;orthogonalLoop=1;jettySize=auto;html=1;exitX=1;exitY=0.5;exitDx=0;exitDy=0;entryX=0;entryY=0.5;entryDx=0;entryDy=0;strokeColor=#CC0000;" parent="1" source="t38KisBEw0-XXumSd1B3-41" target="t38KisBEw0-XXumSd1B3-39" edge="1">
          <mxGeometry relative="1" as="geometry" />
        </mxCell>
        <mxCell id="t38KisBEw0-XXumSd1B3-41" value="11" style="ellipse;whiteSpace=wrap;html=1;aspect=fixed;" parent="1" vertex="1">
          <mxGeometry x="600" y="360" width="40" height="40" as="geometry" />
        </mxCell>
        <mxCell id="t38KisBEw0-XXumSd1B3-45" value="A11(2)/0" style="text;html=1;align=center;verticalAlign=middle;resizable=0;points=[];autosize=1;strokeColor=none;fillColor=none;" parent="1" vertex="1">
          <mxGeometry x="555" y="420" width="70" height="30" as="geometry" />
        </mxCell>
        <mxCell id="t38KisBEw0-XXumSd1B3-46" value="A12(1)/0" style="text;html=1;align=center;verticalAlign=middle;resizable=0;points=[];autosize=1;strokeColor=none;fillColor=none;" parent="1" vertex="1">
          <mxGeometry x="625" y="348" width="70" height="30" as="geometry" />
        </mxCell>
        <mxCell id="t38KisBEw0-XXumSd1B3-48" value="A13(1)/0" style="text;html=1;align=center;verticalAlign=middle;resizable=0;points=[];autosize=1;strokeColor=none;fillColor=none;" parent="1" vertex="1">
          <mxGeometry x="635" y="298" width="70" height="30" as="geometry" />
        </mxCell>
        <mxCell id="t38KisBEw0-XXumSd1B3-56" style="rounded=0;orthogonalLoop=1;jettySize=auto;html=1;exitX=0.5;exitY=1;exitDx=0;exitDy=0;entryX=0.5;entryY=0;entryDx=0;entryDy=0;dashed=1;" parent="1" source="t38KisBEw0-XXumSd1B3-49" target="t38KisBEw0-XXumSd1B3-51" edge="1">
          <mxGeometry relative="1" as="geometry" />
        </mxCell>
        <mxCell id="t38KisBEw0-XXumSd1B3-49" value="14" style="ellipse;whiteSpace=wrap;html=1;aspect=fixed;" parent="1" vertex="1">
          <mxGeometry x="760" y="160" width="40" height="40" as="geometry" />
        </mxCell>
        <mxCell id="t38KisBEw0-XXumSd1B3-63" style="rounded=0;orthogonalLoop=1;jettySize=auto;html=1;exitX=0.5;exitY=0;exitDx=0;exitDy=0;entryX=0.5;entryY=1;entryDx=0;entryDy=0;strokeColor=#CC0000;" parent="1" source="t38KisBEw0-XXumSd1B3-50" target="t38KisBEw0-XXumSd1B3-60" edge="1">
          <mxGeometry relative="1" as="geometry" />
        </mxCell>
        <mxCell id="t38KisBEw0-XXumSd1B3-50" value="16" style="ellipse;whiteSpace=wrap;html=1;aspect=fixed;" parent="1" vertex="1">
          <mxGeometry x="840" y="320" width="40" height="40" as="geometry" />
        </mxCell>
        <mxCell id="t38KisBEw0-XXumSd1B3-57" style="rounded=0;orthogonalLoop=1;jettySize=auto;html=1;exitX=1;exitY=0.5;exitDx=0;exitDy=0;entryX=0;entryY=0.5;entryDx=0;entryDy=0;strokeColor=#CC0000;" parent="1" source="t38KisBEw0-XXumSd1B3-51" target="t38KisBEw0-XXumSd1B3-50" edge="1">
          <mxGeometry relative="1" as="geometry" />
        </mxCell>
        <mxCell id="t38KisBEw0-XXumSd1B3-51" value="15" style="ellipse;whiteSpace=wrap;html=1;aspect=fixed;" parent="1" vertex="1">
          <mxGeometry x="760" y="320" width="40" height="40" as="geometry" />
        </mxCell>
        <mxCell id="t38KisBEw0-XXumSd1B3-54" value="A15(2)/0" style="text;html=1;align=center;verticalAlign=middle;resizable=0;points=[];autosize=1;strokeColor=none;fillColor=none;" parent="1" vertex="1">
          <mxGeometry x="714" y="269" width="70" height="30" as="geometry" />
        </mxCell>
        <mxCell id="t38KisBEw0-XXumSd1B3-55" value="A14(2)/0" style="text;html=1;align=center;verticalAlign=middle;resizable=0;points=[];autosize=1;strokeColor=none;fillColor=none;" parent="1" vertex="1">
          <mxGeometry x="675" y="188" width="70" height="30" as="geometry" />
        </mxCell>
        <mxCell id="t38KisBEw0-XXumSd1B3-58" value="A16(1)/0" style="text;html=1;align=center;verticalAlign=middle;resizable=0;points=[];autosize=1;strokeColor=none;fillColor=none;" parent="1" vertex="1">
          <mxGeometry x="785" y="308" width="70" height="30" as="geometry" />
        </mxCell>
        <mxCell id="t38KisBEw0-XXumSd1B3-64" style="rounded=0;orthogonalLoop=1;jettySize=auto;html=1;exitX=1;exitY=0.5;exitDx=0;exitDy=0;entryX=0;entryY=0.5;entryDx=0;entryDy=0;strokeColor=#CC0000;" parent="1" source="t38KisBEw0-XXumSd1B3-60" target="t38KisBEw0-XXumSd1B3-61" edge="1">
          <mxGeometry relative="1" as="geometry" />
        </mxCell>
        <mxCell id="t38KisBEw0-XXumSd1B3-60" value="17" style="ellipse;whiteSpace=wrap;html=1;aspect=fixed;" parent="1" vertex="1">
          <mxGeometry x="840" y="200" width="40" height="40" as="geometry" />
        </mxCell>
        <mxCell id="t38KisBEw0-XXumSd1B3-65" style="rounded=0;orthogonalLoop=1;jettySize=auto;html=1;exitX=1;exitY=0.5;exitDx=0;exitDy=0;entryX=0;entryY=0.5;entryDx=0;entryDy=0;strokeColor=#CC0000;" parent="1" source="t38KisBEw0-XXumSd1B3-61" target="t38KisBEw0-XXumSd1B3-62" edge="1">
          <mxGeometry relative="1" as="geometry" />
        </mxCell>
        <mxCell id="t38KisBEw0-XXumSd1B3-61" value="18" style="ellipse;whiteSpace=wrap;html=1;aspect=fixed;" parent="1" vertex="1">
          <mxGeometry x="920" y="200" width="40" height="40" as="geometry" />
        </mxCell>
        <mxCell id="t38KisBEw0-XXumSd1B3-80" style="edgeStyle=none;rounded=0;orthogonalLoop=1;jettySize=auto;html=1;exitX=1;exitY=1;exitDx=0;exitDy=0;entryX=0;entryY=0.5;entryDx=0;entryDy=0;strokeColor=#CC0000;" parent="1" source="t38KisBEw0-XXumSd1B3-62" target="t38KisBEw0-XXumSd1B3-78" edge="1">
          <mxGeometry relative="1" as="geometry" />
        </mxCell>
        <mxCell id="t38KisBEw0-XXumSd1B3-62" value="19" style="ellipse;whiteSpace=wrap;html=1;aspect=fixed;" parent="1" vertex="1">
          <mxGeometry x="1000" y="200" width="40" height="40" as="geometry" />
        </mxCell>
        <mxCell id="t38KisBEw0-XXumSd1B3-66" value="A17(2)/0" style="text;html=1;align=center;verticalAlign=middle;resizable=0;points=[];autosize=1;strokeColor=none;fillColor=none;" parent="1" vertex="1">
          <mxGeometry x="795" y="260" width="70" height="30" as="geometry" />
        </mxCell>
        <mxCell id="t38KisBEw0-XXumSd1B3-67" value="A18(1)/0" style="text;html=1;align=center;verticalAlign=middle;resizable=0;points=[];autosize=1;strokeColor=none;fillColor=none;" parent="1" vertex="1">
          <mxGeometry x="865" y="188" width="70" height="30" as="geometry" />
        </mxCell>
        <mxCell id="t38KisBEw0-XXumSd1B3-68" value="A19(1)/0" style="text;html=1;align=center;verticalAlign=middle;resizable=0;points=[];autosize=1;strokeColor=none;fillColor=none;" parent="1" vertex="1">
          <mxGeometry x="945" y="188" width="70" height="30" as="geometry" />
        </mxCell>
        <mxCell id="t38KisBEw0-XXumSd1B3-298" style="edgeStyle=none;rounded=0;orthogonalLoop=1;jettySize=auto;html=1;exitX=0.5;exitY=1;exitDx=0;exitDy=0;entryX=0.5;entryY=0;entryDx=0;entryDy=0;dashed=1;" parent="1" source="t38KisBEw0-XXumSd1B3-72" target="t38KisBEw0-XXumSd1B3-13" edge="1">
          <mxGeometry relative="1" as="geometry" />
        </mxCell>
        <mxCell id="t38KisBEw0-XXumSd1B3-72" value="6" style="ellipse;whiteSpace=wrap;html=1;" parent="1" vertex="1">
          <mxGeometry x="439" y="240" width="40" height="40" as="geometry" />
        </mxCell>
        <mxCell id="t38KisBEw0-XXumSd1B3-83" style="edgeStyle=none;rounded=0;orthogonalLoop=1;jettySize=auto;html=1;exitX=0.5;exitY=1;exitDx=0;exitDy=0;entryX=0.5;entryY=0;entryDx=0;entryDy=0;dashed=1;" parent="1" source="t38KisBEw0-XXumSd1B3-75" target="t38KisBEw0-XXumSd1B3-78" edge="1">
          <mxGeometry relative="1" as="geometry" />
        </mxCell>
        <mxCell id="t38KisBEw0-XXumSd1B3-75" value="20" style="ellipse;whiteSpace=wrap;html=1;aspect=fixed;" parent="1" vertex="1">
          <mxGeometry x="1080" y="120" width="40" height="40" as="geometry" />
        </mxCell>
        <mxCell id="t38KisBEw0-XXumSd1B3-88" style="edgeStyle=none;rounded=0;orthogonalLoop=1;jettySize=auto;html=1;exitX=0.5;exitY=1;exitDx=0;exitDy=0;entryX=0.5;entryY=0;entryDx=0;entryDy=0;dashed=1;" parent="1" source="t38KisBEw0-XXumSd1B3-76" target="t38KisBEw0-XXumSd1B3-77" edge="1">
          <mxGeometry relative="1" as="geometry" />
        </mxCell>
        <mxCell id="t38KisBEw0-XXumSd1B3-76" value="22" style="ellipse;whiteSpace=wrap;html=1;aspect=fixed;" parent="1" vertex="1">
          <mxGeometry x="1160" y="198" width="40" height="40" as="geometry" />
        </mxCell>
        <mxCell id="t38KisBEw0-XXumSd1B3-91" style="edgeStyle=none;rounded=0;orthogonalLoop=1;jettySize=auto;html=1;exitX=1;exitY=0;exitDx=0;exitDy=0;entryX=0;entryY=0.5;entryDx=0;entryDy=0;" parent="1" source="t38KisBEw0-XXumSd1B3-77" target="t38KisBEw0-XXumSd1B3-90" edge="1">
          <mxGeometry relative="1" as="geometry" />
        </mxCell>
        <mxCell id="t38KisBEw0-XXumSd1B3-92" style="edgeStyle=none;rounded=0;orthogonalLoop=1;jettySize=auto;html=1;exitX=1;exitY=1;exitDx=0;exitDy=0;entryX=0;entryY=0.5;entryDx=0;entryDy=0;strokeColor=#CC0000;" parent="1" source="t38KisBEw0-XXumSd1B3-77" target="t38KisBEw0-XXumSd1B3-89" edge="1">
          <mxGeometry relative="1" as="geometry" />
        </mxCell>
        <mxCell id="t38KisBEw0-XXumSd1B3-77" value="23" style="ellipse;whiteSpace=wrap;html=1;aspect=fixed;" parent="1" vertex="1">
          <mxGeometry x="1160" y="360" width="40" height="40" as="geometry" />
        </mxCell>
        <mxCell id="t38KisBEw0-XXumSd1B3-84" style="edgeStyle=none;rounded=0;orthogonalLoop=1;jettySize=auto;html=1;exitX=1;exitY=0;exitDx=0;exitDy=0;entryX=0;entryY=0.5;entryDx=0;entryDy=0;" parent="1" source="t38KisBEw0-XXumSd1B3-78" target="t38KisBEw0-XXumSd1B3-76" edge="1">
          <mxGeometry relative="1" as="geometry" />
        </mxCell>
        <mxCell id="t38KisBEw0-XXumSd1B3-85" style="edgeStyle=none;rounded=0;orthogonalLoop=1;jettySize=auto;html=1;exitX=1;exitY=1;exitDx=0;exitDy=0;entryX=0;entryY=0.5;entryDx=0;entryDy=0;strokeColor=#CC0000;" parent="1" source="t38KisBEw0-XXumSd1B3-78" target="t38KisBEw0-XXumSd1B3-77" edge="1">
          <mxGeometry relative="1" as="geometry" />
        </mxCell>
        <mxCell id="t38KisBEw0-XXumSd1B3-78" value="21" style="ellipse;whiteSpace=wrap;html=1;aspect=fixed;" parent="1" vertex="1">
          <mxGeometry x="1080" y="278" width="40" height="40" as="geometry" />
        </mxCell>
        <mxCell id="t38KisBEw0-XXumSd1B3-79" style="edgeStyle=none;rounded=0;orthogonalLoop=1;jettySize=auto;html=1;exitX=1;exitY=0;exitDx=0;exitDy=0;entryX=0.033;entryY=0.624;entryDx=0;entryDy=0;entryPerimeter=0;" parent="1" source="t38KisBEw0-XXumSd1B3-62" target="t38KisBEw0-XXumSd1B3-75" edge="1">
          <mxGeometry relative="1" as="geometry" />
        </mxCell>
        <mxCell id="t38KisBEw0-XXumSd1B3-81" value="B1(1)/0" style="text;html=1;align=center;verticalAlign=middle;resizable=0;points=[];autosize=1;strokeColor=none;fillColor=none;" parent="1" vertex="1">
          <mxGeometry x="1010" y="148" width="60" height="30" as="geometry" />
        </mxCell>
        <mxCell id="t38KisBEw0-XXumSd1B3-82" value="B2(1)/0" style="text;html=1;align=center;verticalAlign=middle;resizable=0;points=[];autosize=1;strokeColor=none;fillColor=none;" parent="1" vertex="1">
          <mxGeometry x="1005" y="258" width="60" height="30" as="geometry" />
        </mxCell>
        <mxCell id="t38KisBEw0-XXumSd1B3-86" value="B3(1)/0" style="text;html=1;align=center;verticalAlign=middle;resizable=0;points=[];autosize=1;strokeColor=none;fillColor=none;" parent="1" vertex="1">
          <mxGeometry x="1095" y="218" width="60" height="30" as="geometry" />
        </mxCell>
        <mxCell id="t38KisBEw0-XXumSd1B3-87" value="B4(1)/0" style="text;html=1;align=center;verticalAlign=middle;resizable=0;points=[];autosize=1;strokeColor=none;fillColor=none;" parent="1" vertex="1">
          <mxGeometry x="1085" y="338" width="60" height="30" as="geometry" />
        </mxCell>
        <mxCell id="t38KisBEw0-XXumSd1B3-100" style="edgeStyle=none;rounded=0;orthogonalLoop=1;jettySize=auto;html=1;exitX=1;exitY=0.5;exitDx=0;exitDy=0;entryX=0;entryY=0.5;entryDx=0;entryDy=0;strokeColor=#CC0000;" parent="1" source="t38KisBEw0-XXumSd1B3-89" target="t38KisBEw0-XXumSd1B3-99" edge="1">
          <mxGeometry relative="1" as="geometry" />
        </mxCell>
        <mxCell id="t38KisBEw0-XXumSd1B3-89" value="25" style="ellipse;whiteSpace=wrap;html=1;aspect=fixed;" parent="1" vertex="1">
          <mxGeometry x="1240" y="440" width="40" height="40" as="geometry" />
        </mxCell>
        <mxCell id="t38KisBEw0-XXumSd1B3-95" style="edgeStyle=none;rounded=0;orthogonalLoop=1;jettySize=auto;html=1;exitX=0.5;exitY=1;exitDx=0;exitDy=0;entryX=0.5;entryY=0;entryDx=0;entryDy=0;dashed=1;" parent="1" source="t38KisBEw0-XXumSd1B3-90" target="t38KisBEw0-XXumSd1B3-89" edge="1">
          <mxGeometry relative="1" as="geometry" />
        </mxCell>
        <mxCell id="t38KisBEw0-XXumSd1B3-90" value="24" style="ellipse;whiteSpace=wrap;html=1;aspect=fixed;" parent="1" vertex="1">
          <mxGeometry x="1240" y="280" width="40" height="40" as="geometry" />
        </mxCell>
        <mxCell id="t38KisBEw0-XXumSd1B3-93" value="B5(2)/0" style="text;html=1;align=center;verticalAlign=middle;resizable=0;points=[];autosize=1;strokeColor=none;fillColor=none;" parent="1" vertex="1">
          <mxGeometry x="1175" y="298" width="60" height="30" as="geometry" />
        </mxCell>
        <mxCell id="t38KisBEw0-XXumSd1B3-94" value="B6(2)/0" style="text;html=1;align=center;verticalAlign=middle;resizable=0;points=[];autosize=1;strokeColor=none;fillColor=none;" parent="1" vertex="1">
          <mxGeometry x="1165" y="420" width="60" height="30" as="geometry" />
        </mxCell>
        <mxCell id="t38KisBEw0-XXumSd1B3-111" style="edgeStyle=none;rounded=0;orthogonalLoop=1;jettySize=auto;html=1;exitX=1;exitY=0;exitDx=0;exitDy=0;entryX=0;entryY=0.5;entryDx=0;entryDy=0;" parent="1" source="t38KisBEw0-XXumSd1B3-96" target="t38KisBEw0-XXumSd1B3-97" edge="1">
          <mxGeometry relative="1" as="geometry" />
        </mxCell>
        <mxCell id="t38KisBEw0-XXumSd1B3-117" style="edgeStyle=none;rounded=0;orthogonalLoop=1;jettySize=auto;html=1;exitX=1;exitY=1;exitDx=0;exitDy=0;entryX=0;entryY=0.5;entryDx=0;entryDy=0;" parent="1" source="t38KisBEw0-XXumSd1B3-96" target="t38KisBEw0-XXumSd1B3-106" edge="1">
          <mxGeometry relative="1" as="geometry" />
        </mxCell>
        <mxCell id="t38KisBEw0-XXumSd1B3-118" style="edgeStyle=none;rounded=0;orthogonalLoop=1;jettySize=auto;html=1;exitX=0.5;exitY=1;exitDx=0;exitDy=0;entryX=0;entryY=0.5;entryDx=0;entryDy=0;" parent="1" source="t38KisBEw0-XXumSd1B3-96" target="t38KisBEw0-XXumSd1B3-109" edge="1">
          <mxGeometry relative="1" as="geometry" />
        </mxCell>
        <mxCell id="t38KisBEw0-XXumSd1B3-135" style="edgeStyle=none;rounded=0;orthogonalLoop=1;jettySize=auto;html=1;exitX=1;exitY=0.5;exitDx=0;exitDy=0;entryX=0;entryY=0.5;entryDx=0;entryDy=0;strokeColor=#CC0000;" parent="1" source="t38KisBEw0-XXumSd1B3-96" target="t38KisBEw0-XXumSd1B3-107" edge="1">
          <mxGeometry relative="1" as="geometry" />
        </mxCell>
        <mxCell id="t38KisBEw0-XXumSd1B3-96" value="28" style="ellipse;whiteSpace=wrap;html=1;aspect=fixed;" parent="1" vertex="1">
          <mxGeometry x="1400" y="320" width="40" height="40" as="geometry" />
        </mxCell>
        <mxCell id="t38KisBEw0-XXumSd1B3-127" style="edgeStyle=none;rounded=0;orthogonalLoop=1;jettySize=auto;html=1;exitX=1;exitY=1;exitDx=0;exitDy=0;entryX=0.5;entryY=0;entryDx=0;entryDy=0;dashed=1;" parent="1" source="t38KisBEw0-XXumSd1B3-97" target="t38KisBEw0-XXumSd1B3-107" edge="1">
          <mxGeometry relative="1" as="geometry" />
        </mxCell>
        <mxCell id="t38KisBEw0-XXumSd1B3-181" style="edgeStyle=none;rounded=0;orthogonalLoop=1;jettySize=auto;html=1;exitX=1;exitY=0.5;exitDx=0;exitDy=0;entryX=0;entryY=0.5;entryDx=0;entryDy=0;" parent="1" source="t38KisBEw0-XXumSd1B3-97" target="t38KisBEw0-XXumSd1B3-144" edge="1">
          <mxGeometry relative="1" as="geometry" />
        </mxCell>
        <mxCell id="t38KisBEw0-XXumSd1B3-97" value="30" style="ellipse;whiteSpace=wrap;html=1;aspect=fixed;" parent="1" vertex="1">
          <mxGeometry x="1480" y="238" width="40" height="40" as="geometry" />
        </mxCell>
        <mxCell id="t38KisBEw0-XXumSd1B3-104" style="edgeStyle=none;rounded=0;orthogonalLoop=1;jettySize=auto;html=1;exitX=1;exitY=0.5;exitDx=0;exitDy=0;strokeColor=#CC0000;" parent="1" source="t38KisBEw0-XXumSd1B3-98" edge="1">
          <mxGeometry relative="1" as="geometry">
            <mxPoint x="1400" y="340" as="targetPoint" />
          </mxGeometry>
        </mxCell>
        <mxCell id="t38KisBEw0-XXumSd1B3-98" value="27" style="ellipse;whiteSpace=wrap;html=1;aspect=fixed;" parent="1" vertex="1">
          <mxGeometry x="1320" y="320" width="40" height="40" as="geometry" />
        </mxCell>
        <mxCell id="t38KisBEw0-XXumSd1B3-102" style="edgeStyle=none;rounded=0;orthogonalLoop=1;jettySize=auto;html=1;exitX=0.5;exitY=0;exitDx=0;exitDy=0;entryX=0.5;entryY=1;entryDx=0;entryDy=0;strokeColor=#CC0000;" parent="1" source="t38KisBEw0-XXumSd1B3-99" target="t38KisBEw0-XXumSd1B3-98" edge="1">
          <mxGeometry relative="1" as="geometry" />
        </mxCell>
        <mxCell id="t38KisBEw0-XXumSd1B3-99" value="26" style="ellipse;whiteSpace=wrap;html=1;aspect=fixed;" parent="1" vertex="1">
          <mxGeometry x="1320" y="440" width="40" height="40" as="geometry" />
        </mxCell>
        <mxCell id="t38KisBEw0-XXumSd1B3-101" value="B7(1)/0" style="text;html=1;align=center;verticalAlign=middle;resizable=0;points=[];autosize=1;strokeColor=none;fillColor=none;" parent="1" vertex="1">
          <mxGeometry x="1265" y="429" width="60" height="30" as="geometry" />
        </mxCell>
        <mxCell id="t38KisBEw0-XXumSd1B3-103" value="B8(1)/0" style="text;html=1;align=center;verticalAlign=middle;resizable=0;points=[];autosize=1;strokeColor=none;fillColor=none;" parent="1" vertex="1">
          <mxGeometry x="1280" y="378" width="60" height="30" as="geometry" />
        </mxCell>
        <mxCell id="t38KisBEw0-XXumSd1B3-106" value="31" style="ellipse;whiteSpace=wrap;html=1;aspect=fixed;" parent="1" vertex="1">
          <mxGeometry x="1480" y="400" width="40" height="40" as="geometry" />
        </mxCell>
        <mxCell id="t38KisBEw0-XXumSd1B3-107" value="29" style="ellipse;whiteSpace=wrap;html=1;aspect=fixed;" parent="1" vertex="1">
          <mxGeometry x="1520" y="319" width="40" height="40" as="geometry" />
        </mxCell>
        <mxCell id="t38KisBEw0-XXumSd1B3-136" style="edgeStyle=none;rounded=0;orthogonalLoop=1;jettySize=auto;html=1;exitX=1;exitY=0;exitDx=0;exitDy=0;dashed=1;" parent="1" source="t38KisBEw0-XXumSd1B3-109" edge="1">
          <mxGeometry relative="1" as="geometry">
            <mxPoint x="1540" y="360" as="targetPoint" />
          </mxGeometry>
        </mxCell>
        <mxCell id="t38KisBEw0-XXumSd1B3-155" style="edgeStyle=none;rounded=0;orthogonalLoop=1;jettySize=auto;html=1;exitX=1;exitY=0.5;exitDx=0;exitDy=0;entryX=0;entryY=0.5;entryDx=0;entryDy=0;" parent="1" source="t38KisBEw0-XXumSd1B3-109" target="t38KisBEw0-XXumSd1B3-154" edge="1">
          <mxGeometry relative="1" as="geometry" />
        </mxCell>
        <mxCell id="t38KisBEw0-XXumSd1B3-109" value="32" style="ellipse;whiteSpace=wrap;html=1;aspect=fixed;" parent="1" vertex="1">
          <mxGeometry x="1480" y="480" width="40" height="40" as="geometry" />
        </mxCell>
        <mxCell id="t38KisBEw0-XXumSd1B3-110" value="B9(2)/0" style="text;html=1;align=center;verticalAlign=middle;resizable=0;points=[];autosize=1;strokeColor=none;fillColor=none;" parent="1" vertex="1">
          <mxGeometry x="1349" y="308" width="60" height="30" as="geometry" />
        </mxCell>
        <mxCell id="t38KisBEw0-XXumSd1B3-119" value="B11(3)/0" style="text;html=1;align=center;verticalAlign=middle;resizable=0;points=[];autosize=1;strokeColor=none;fillColor=none;" parent="1" vertex="1">
          <mxGeometry x="1400" y="268" width="70" height="30" as="geometry" />
        </mxCell>
        <mxCell id="t38KisBEw0-XXumSd1B3-120" value="B10(3&lt;span style=&quot;color: rgba(0, 0, 0, 0); font-family: monospace; font-size: 0px; text-align: start;&quot;&gt;%3CmxGraphModel%3E%3Croot%3E%3CmxCell%20id%3D%220%22%2F%3E%3CmxCell%20id%3D%221%22%20parent%3D%220%22%2F%3E%3CmxCell%20id%3D%222%22%20value%3D%22%26lt%3Bfont%20color%3D%26quot%3B%230000ff%26quot%3B%26gt%3B32%26lt%3B%2Ffont%26gt%3B%2F%26lt%3Bfont%20color%3D%26quot%3B%23cc0000%26quot%3B%26gt%3B32%26lt%3B%2Ffont%26gt%3B%22%20style%3D%22text%3Bhtml%3D1%3Balign%3Dcenter%3BverticalAlign%3Dmiddle%3Bresizable%3D0%3Bpoints%3D%5B%5D%3Bautosize%3D1%3BstrokeColor%3Dnone%3BfillColor%3Dnone%3B%22%20vertex%3D%221%22%20parent%3D%221%22%3E%3CmxGeometry%20x%3D%221675%22%20y%3D%22490%22%20width%3D%2250%22%20height%3D%2230%22%20as%3D%22geometry%22%2F%3E%3C%2FmxCell%3E%3C%2Froot%3E%3C%2FmxGraphModel%3E&lt;/span&gt;)/0&lt;span style=&quot;color: rgba(0, 0, 0, 0); font-family: monospace; font-size: 0px; text-align: start;&quot;&gt;%3CmxGraphModel%3E%3Croot%3E%3CmxCell%20id%3D%220%22%2F%3E%3CmxCell%20id%3D%221%22%20parent%3D%220%22%2F%3E%3CmxCell%20id%3D%222%22%20value%3D%22%26lt%3Bfont%20color%3D%26quot%3B%230000ff%26quot%3B%26gt%3B32%26lt%3B%2Ffont%26gt%3B%2F%26lt%3Bfont%20color%3D%26quot%3B%23cc0000%26quot%3B%26gt%3B32%26lt%3B%2Ffont%26gt%3B%22%20style%3D%22text%3Bhtml%3D1%3Balign%3Dcenter%3BverticalAlign%3Dmiddle%3Bresizable%3D0%3Bpoints%3D%5B%5D%3Bautosize%3D1%3BstrokeColor%3Dnone%3BfillColor%3Dnone%3B%22%20vertex%3D%221%22%20parent%3D%221%22%3E%3CmxGeometry%20x%3D%221675%22%20y%3D%22490%22%20width%3D%2250%22%20height%3D%2230%22%20as%3D%22geometry%22%2F%3E%3C%2FmxCell%3E%3C%2Froot%3E%3C%2FmxGraphModel%3E&lt;/span&gt;&lt;span style=&quot;color: rgba(0, 0, 0, 0); font-family: monospace; font-size: 0px; text-align: start;&quot;&gt;%3CmxGraphModel%3E%3Croot%3E%3CmxCell%20id%3D%220%22%2F%3E%3CmxCell%20id%3D%221%22%20parent%3D%220%22%2F%3E%3CmxCell%20id%3D%222%22%20value%3D%22%26lt%3Bfont%20color%3D%26quot%3B%230000ff%26quot%3B%26gt%3B32%26lt%3B%2Ffont%26gt%3B%2F%26lt%3Bfont%20color%3D%26quot%3B%23cc0000%26quot%3B%26gt%3B32%26lt%3B%2Ffont%26gt%3B%22%20style%3D%22text%3Bhtml%3D1%3Balign%3Dcenter%3BverticalAlign%3Dmiddle%3Bresizable%3D0%3Bpoints%3D%5B%5D%3Bautosize%3D1%3BstrokeColor%3Dnone%3BfillColor%3Dnone%3B%22%20vertex%3D%221%22%20parent%3D%221%22%3E%3CmxGeometry%20x%3D%221675%22%20y%3D%22490%22%20width%3D%2250%22%20height%3D%2230%22%20as%3D%22geometry%22%2F%3E%3C%2FmxCell%3E%3C%2Froot%3E%3C%2FmxGraphModel%3E&lt;/span&gt;&lt;span style=&quot;color: rgba(0, 0, 0, 0); font-family: monospace; font-size: 0px; text-align: start;&quot;&gt;%3CmxGraphModel%3E%3Croot%3E%3CmxCell%20id%3D%220%22%2F%3E%3CmxCell%20id%3D%221%22%20parent%3D%220%22%2F%3E%3CmxCell%20id%3D%222%22%20value%3D%22%26lt%3Bfont%20color%3D%26quot%3B%230000ff%26quot%3B%26gt%3B32%26lt%3B%2Ffont%26gt%3B%2F%26lt%3Bfont%20color%3D%26quot%3B%23cc0000%26quot%3B%26gt%3B32%26lt%3B%2Ffont%26gt%3B%22%20style%3D%22text%3Bhtml%3D1%3Balign%3Dcenter%3BverticalAlign%3Dmiddle%3Bresizable%3D0%3Bpoints%3D%5B%5D%3Bautosize%3D1%3BstrokeColor%3Dnone%3BfillColor%3Dnone%3B%22%20vertex%3D%221%22%20parent%3D%221%22%3E%3CmxGeometry%20x%3D%221675%22%20y%3D%22490%22%20width%3D%2250%22%20height%3D%2230%22%20as%3D%22geometry%22%2F%3E%3C%2FmxCell%3E%3C%2Froot%3E%3C%2FmxGraphModel%3E&lt;/span&gt;&lt;span style=&quot;color: rgba(0, 0, 0, 0); font-family: monospace; font-size: 0px; text-align: start;&quot;&gt;%3CmxGraphModel%3E%3Croot%3E%3CmxCell%20id%3D%220%22%2F%3E%3CmxCell%20id%3D%221%22%20parent%3D%220%22%2F%3E%3CmxCell%20id%3D%222%22%20value%3D%22%26lt%3Bfont%20color%3D%26quot%3B%230000ff%26quot%3B%26gt%3B32%26lt%3B%2Ffont%26gt%3B%2F%26lt%3Bfont%20color%3D%26quot%3B%23cc0000%26quot%3B%26gt%3B32%26lt%3B%2Ffont%26gt%3B%22%20style%3D%22text%3Bhtml%3D1%3Balign%3Dcenter%3BverticalAlign%3Dmiddle%3Bresizable%3D0%3Bpoints%3D%5B%5D%3Bautosize%3D1%3BstrokeColor%3Dnone%3BfillColor%3Dnone%3B%22%20vertex%3D%221%22%20parent%3D%221%22%3E%3CmxGeometry%20x%3D%221675%22%20y%3D%22490%22%20width%3D%2250%22%20height%3D%2230%22%20as%3D%22geometry%22%2F%3E%3C%2FmxCell%3E%3C%2Froot%3E%3C%2FmxGraphModel%3E&lt;/span&gt;" style="text;html=1;align=center;verticalAlign=middle;resizable=0;points=[];autosize=1;strokeColor=none;fillColor=none;" parent="1" vertex="1">
          <mxGeometry x="1435" y="308" width="70" height="30" as="geometry" />
        </mxCell>
        <mxCell id="t38KisBEw0-XXumSd1B3-121" value="B12(3)/0" style="text;html=1;align=center;verticalAlign=middle;resizable=0;points=[];autosize=1;strokeColor=none;fillColor=none;" parent="1" vertex="1">
          <mxGeometry x="1435" y="356" width="70" height="30" as="geometry" />
        </mxCell>
        <mxCell id="t38KisBEw0-XXumSd1B3-122" value="B13(3)/0" style="text;html=1;align=center;verticalAlign=middle;resizable=0;points=[];autosize=1;strokeColor=none;fillColor=none;" parent="1" vertex="1">
          <mxGeometry x="1380" y="400" width="70" height="30" as="geometry" />
        </mxCell>
        <mxCell id="t38KisBEw0-XXumSd1B3-126" style="edgeStyle=none;rounded=0;orthogonalLoop=1;jettySize=auto;html=1;exitX=0.5;exitY=0;exitDx=0;exitDy=0;entryX=0;entryY=1;entryDx=0;entryDy=0;dashed=1;" parent="1" source="t38KisBEw0-XXumSd1B3-106" target="t38KisBEw0-XXumSd1B3-107" edge="1">
          <mxGeometry relative="1" as="geometry" />
        </mxCell>
        <mxCell id="t38KisBEw0-XXumSd1B3-142" style="edgeStyle=none;rounded=0;orthogonalLoop=1;jettySize=auto;html=1;exitX=0.5;exitY=1;exitDx=0;exitDy=0;entryX=0.5;entryY=0;entryDx=0;entryDy=0;strokeColor=#CC0000;" parent="1" source="t38KisBEw0-XXumSd1B3-128" target="t38KisBEw0-XXumSd1B3-139" edge="1">
          <mxGeometry relative="1" as="geometry" />
        </mxCell>
        <mxCell id="t38KisBEw0-XXumSd1B3-128" value="33" style="ellipse;whiteSpace=wrap;html=1;aspect=fixed;" parent="1" vertex="1">
          <mxGeometry x="1600" y="320" width="40" height="40" as="geometry" />
        </mxCell>
        <mxCell id="t38KisBEw0-XXumSd1B3-130" style="edgeStyle=none;rounded=0;orthogonalLoop=1;jettySize=auto;html=1;exitX=1;exitY=0.5;exitDx=0;exitDy=0;entryX=0;entryY=0.5;entryDx=0;entryDy=0;strokeColor=#CC0000;" parent="1" edge="1">
          <mxGeometry relative="1" as="geometry">
            <mxPoint x="1560" y="339.65999999999997" as="sourcePoint" />
            <mxPoint x="1600" y="339.65999999999997" as="targetPoint" />
          </mxGeometry>
        </mxCell>
        <mxCell id="t38KisBEw0-XXumSd1B3-137" value="B14(1)/0" style="text;html=1;align=center;verticalAlign=middle;resizable=0;points=[];autosize=1;strokeColor=none;fillColor=none;" parent="1" vertex="1">
          <mxGeometry x="1545" y="309" width="70" height="30" as="geometry" />
        </mxCell>
        <mxCell id="t38KisBEw0-XXumSd1B3-148" style="edgeStyle=none;rounded=0;orthogonalLoop=1;jettySize=auto;html=1;exitX=1;exitY=0.5;exitDx=0;exitDy=0;entryX=0;entryY=0.5;entryDx=0;entryDy=0;strokeColor=#CC0000;" parent="1" source="t38KisBEw0-XXumSd1B3-138" target="t38KisBEw0-XXumSd1B3-143" edge="1">
          <mxGeometry relative="1" as="geometry">
            <mxPoint x="1699.7931034482758" y="370" as="targetPoint" />
          </mxGeometry>
        </mxCell>
        <mxCell id="t38KisBEw0-XXumSd1B3-138" value="35" style="ellipse;whiteSpace=wrap;html=1;aspect=fixed;" parent="1" vertex="1">
          <mxGeometry x="1680" y="440" width="40" height="40" as="geometry" />
        </mxCell>
        <mxCell id="t38KisBEw0-XXumSd1B3-141" style="edgeStyle=none;rounded=0;orthogonalLoop=1;jettySize=auto;html=1;exitX=1;exitY=0.5;exitDx=0;exitDy=0;entryX=0;entryY=0.5;entryDx=0;entryDy=0;strokeColor=#CC0000;" parent="1" source="t38KisBEw0-XXumSd1B3-139" target="t38KisBEw0-XXumSd1B3-138" edge="1">
          <mxGeometry relative="1" as="geometry" />
        </mxCell>
        <mxCell id="t38KisBEw0-XXumSd1B3-139" value="34" style="ellipse;whiteSpace=wrap;html=1;aspect=fixed;" parent="1" vertex="1">
          <mxGeometry x="1600" y="440" width="40" height="40" as="geometry" />
        </mxCell>
        <mxCell id="t38KisBEw0-XXumSd1B3-159" style="edgeStyle=none;rounded=0;orthogonalLoop=1;jettySize=auto;html=1;exitX=1;exitY=0.5;exitDx=0;exitDy=0;entryX=0;entryY=0.5;entryDx=0;entryDy=0;strokeColor=#CC0000;" parent="1" source="t38KisBEw0-XXumSd1B3-143" target="t38KisBEw0-XXumSd1B3-153" edge="1">
          <mxGeometry relative="1" as="geometry" />
        </mxCell>
        <mxCell id="t38KisBEw0-XXumSd1B3-143" value="36" style="ellipse;whiteSpace=wrap;html=1;aspect=fixed;" parent="1" vertex="1">
          <mxGeometry x="1760" y="440" width="40" height="40" as="geometry" />
        </mxCell>
        <mxCell id="t38KisBEw0-XXumSd1B3-157" style="edgeStyle=none;rounded=0;orthogonalLoop=1;jettySize=auto;html=1;exitX=1;exitY=1;exitDx=0;exitDy=0;entryX=0.5;entryY=0;entryDx=0;entryDy=0;dashed=1;" parent="1" source="t38KisBEw0-XXumSd1B3-144" target="t38KisBEw0-XXumSd1B3-143" edge="1">
          <mxGeometry relative="1" as="geometry" />
        </mxCell>
        <mxCell id="t38KisBEw0-XXumSd1B3-144" value="37" style="ellipse;whiteSpace=wrap;html=1;aspect=fixed;" parent="1" vertex="1">
          <mxGeometry x="1680" y="238" width="40" height="40" as="geometry" />
        </mxCell>
        <mxCell id="t38KisBEw0-XXumSd1B3-147" value="B15(1)/0" style="text;html=1;align=center;verticalAlign=middle;resizable=0;points=[];autosize=1;strokeColor=none;fillColor=none;" parent="1" vertex="1">
          <mxGeometry x="1560" y="378" width="70" height="30" as="geometry" />
        </mxCell>
        <mxCell id="t38KisBEw0-XXumSd1B3-149" value="B16(3)/0" style="text;html=1;align=center;verticalAlign=middle;resizable=0;points=[];autosize=1;strokeColor=none;fillColor=none;" parent="1" vertex="1">
          <mxGeometry x="1626" y="429" width="70" height="30" as="geometry" />
        </mxCell>
        <mxCell id="t38KisBEw0-XXumSd1B3-150" value="B17(2)/0" style="text;html=1;align=center;verticalAlign=middle;resizable=0;points=[];autosize=1;strokeColor=none;fillColor=none;" parent="1" vertex="1">
          <mxGeometry x="1705" y="429" width="70" height="30" as="geometry" />
        </mxCell>
        <mxCell id="t38KisBEw0-XXumSd1B3-152" value="B18(2)/5" style="text;html=1;align=center;verticalAlign=middle;resizable=0;points=[];autosize=1;strokeColor=none;fillColor=none;" parent="1" vertex="1">
          <mxGeometry x="1555" y="228" width="70" height="30" as="geometry" />
        </mxCell>
        <mxCell id="t38KisBEw0-XXumSd1B3-169" style="edgeStyle=none;rounded=0;orthogonalLoop=1;jettySize=auto;html=1;exitX=0.5;exitY=0;exitDx=0;exitDy=0;entryX=0.5;entryY=1;entryDx=0;entryDy=0;strokeColor=#CC0000;" parent="1" source="t38KisBEw0-XXumSd1B3-153" target="t38KisBEw0-XXumSd1B3-161" edge="1">
          <mxGeometry relative="1" as="geometry" />
        </mxCell>
        <mxCell id="t38KisBEw0-XXumSd1B3-153" value="39" style="ellipse;whiteSpace=wrap;html=1;aspect=fixed;" parent="1" vertex="1">
          <mxGeometry x="1840" y="440" width="40" height="40" as="geometry" />
        </mxCell>
        <mxCell id="t38KisBEw0-XXumSd1B3-158" style="edgeStyle=none;rounded=0;orthogonalLoop=1;jettySize=auto;html=1;exitX=1;exitY=0.5;exitDx=0;exitDy=0;dashed=1;entryX=0.5;entryY=1;entryDx=0;entryDy=0;" parent="1" source="t38KisBEw0-XXumSd1B3-154" target="t38KisBEw0-XXumSd1B3-143" edge="1">
          <mxGeometry relative="1" as="geometry" />
        </mxCell>
        <mxCell id="t38KisBEw0-XXumSd1B3-154" value="38" style="ellipse;whiteSpace=wrap;html=1;aspect=fixed;" parent="1" vertex="1">
          <mxGeometry x="1680" y="520" width="40" height="40" as="geometry" />
        </mxCell>
        <mxCell id="t38KisBEw0-XXumSd1B3-156" value="B19(2)/5" style="text;html=1;align=center;verticalAlign=middle;resizable=0;points=[];autosize=1;strokeColor=none;fillColor=none;" parent="1" vertex="1">
          <mxGeometry x="1535" y="478" width="70" height="30" as="geometry" />
        </mxCell>
        <mxCell id="t38KisBEw0-XXumSd1B3-160" value="B20(1)/0" style="text;html=1;align=center;verticalAlign=middle;resizable=0;points=[];autosize=1;strokeColor=none;fillColor=none;" parent="1" vertex="1">
          <mxGeometry x="1785" y="429" width="70" height="30" as="geometry" />
        </mxCell>
        <mxCell id="E5mfxztyceHF_gy6Gpeg-171" style="edgeStyle=orthogonalEdgeStyle;rounded=0;orthogonalLoop=1;jettySize=auto;html=1;exitX=0.5;exitY=0;exitDx=0;exitDy=0;strokeColor=#CC0000;" parent="1" source="t38KisBEw0-XXumSd1B3-161" edge="1">
          <mxGeometry relative="1" as="geometry">
            <mxPoint x="1860.3333333333335" y="240" as="targetPoint" />
          </mxGeometry>
        </mxCell>
        <mxCell id="t38KisBEw0-XXumSd1B3-161" value="40" style="ellipse;whiteSpace=wrap;html=1;aspect=fixed;" parent="1" vertex="1">
          <mxGeometry x="1840" y="318" width="40" height="40" as="geometry" />
        </mxCell>
        <mxCell id="t38KisBEw0-XXumSd1B3-186" style="edgeStyle=none;rounded=0;orthogonalLoop=1;jettySize=auto;html=1;exitX=0.5;exitY=0;exitDx=0;exitDy=0;strokeColor=#CC0000;" parent="1" source="t38KisBEw0-XXumSd1B3-162" edge="1">
          <mxGeometry relative="1" as="geometry">
            <mxPoint x="2019.8695652173915" y="360" as="targetPoint" />
          </mxGeometry>
        </mxCell>
        <mxCell id="t38KisBEw0-XXumSd1B3-162" value="46" style="ellipse;whiteSpace=wrap;html=1;aspect=fixed;" parent="1" vertex="1">
          <mxGeometry x="2000" y="440" width="40" height="40" as="geometry" />
        </mxCell>
        <mxCell id="t38KisBEw0-XXumSd1B3-175" style="edgeStyle=none;rounded=0;orthogonalLoop=1;jettySize=auto;html=1;exitX=1;exitY=0.5;exitDx=0;exitDy=0;entryX=0;entryY=0.5;entryDx=0;entryDy=0;strokeColor=#CC0000;" parent="1" source="t38KisBEw0-XXumSd1B3-163" target="t38KisBEw0-XXumSd1B3-168" edge="1">
          <mxGeometry relative="1" as="geometry" />
        </mxCell>
        <mxCell id="t38KisBEw0-XXumSd1B3-163" value="42" style="ellipse;whiteSpace=wrap;html=1;aspect=fixed;" parent="1" vertex="1">
          <mxGeometry x="1840" y="198" width="40" height="40" as="geometry" />
        </mxCell>
        <mxCell id="t38KisBEw0-XXumSd1B3-185" style="edgeStyle=none;rounded=0;orthogonalLoop=1;jettySize=auto;html=1;exitX=1;exitY=0.5;exitDx=0;exitDy=0;entryX=0;entryY=0.5;entryDx=0;entryDy=0;strokeColor=#CC0000;" parent="1" source="t38KisBEw0-XXumSd1B3-164" target="t38KisBEw0-XXumSd1B3-162" edge="1">
          <mxGeometry relative="1" as="geometry" />
        </mxCell>
        <mxCell id="t38KisBEw0-XXumSd1B3-164" value="45" style="ellipse;whiteSpace=wrap;html=1;aspect=fixed;" parent="1" vertex="1">
          <mxGeometry x="1920" y="440" width="40" height="40" as="geometry" />
        </mxCell>
        <mxCell id="t38KisBEw0-XXumSd1B3-184" style="edgeStyle=none;rounded=0;orthogonalLoop=1;jettySize=auto;html=1;exitX=0.5;exitY=1;exitDx=0;exitDy=0;entryX=0.5;entryY=0;entryDx=0;entryDy=0;strokeColor=#CC0000;" parent="1" source="t38KisBEw0-XXumSd1B3-165" target="t38KisBEw0-XXumSd1B3-164" edge="1">
          <mxGeometry relative="1" as="geometry" />
        </mxCell>
        <mxCell id="t38KisBEw0-XXumSd1B3-165" value="44" style="ellipse;whiteSpace=wrap;html=1;aspect=fixed;" parent="1" vertex="1">
          <mxGeometry x="1920" y="319" width="40" height="40" as="geometry" />
        </mxCell>
        <mxCell id="t38KisBEw0-XXumSd1B3-211" style="edgeStyle=none;rounded=0;orthogonalLoop=1;jettySize=auto;html=1;exitX=1;exitY=0;exitDx=0;exitDy=0;entryX=0;entryY=0.5;entryDx=0;entryDy=0;" parent="1" source="t38KisBEw0-XXumSd1B3-166" target="t38KisBEw0-XXumSd1B3-205" edge="1">
          <mxGeometry relative="1" as="geometry" />
        </mxCell>
        <mxCell id="t38KisBEw0-XXumSd1B3-212" style="edgeStyle=none;rounded=0;orthogonalLoop=1;jettySize=auto;html=1;exitX=1;exitY=1;exitDx=0;exitDy=0;entryX=0;entryY=0.5;entryDx=0;entryDy=0;strokeColor=#CC0000;" parent="1" source="t38KisBEw0-XXumSd1B3-166" target="t38KisBEw0-XXumSd1B3-210" edge="1">
          <mxGeometry relative="1" as="geometry" />
        </mxCell>
        <mxCell id="t38KisBEw0-XXumSd1B3-166" value="53" style="ellipse;whiteSpace=wrap;html=1;aspect=fixed;" parent="1" vertex="1">
          <mxGeometry x="2240" y="400" width="40" height="40" as="geometry" />
        </mxCell>
        <mxCell id="t38KisBEw0-XXumSd1B3-183" style="edgeStyle=none;rounded=0;orthogonalLoop=1;jettySize=auto;html=1;exitX=0.5;exitY=1;exitDx=0;exitDy=0;entryX=0.5;entryY=0;entryDx=0;entryDy=0;strokeColor=#CC0000;" parent="1" source="t38KisBEw0-XXumSd1B3-168" target="t38KisBEw0-XXumSd1B3-165" edge="1">
          <mxGeometry relative="1" as="geometry" />
        </mxCell>
        <mxCell id="t38KisBEw0-XXumSd1B3-168" value="43" style="ellipse;whiteSpace=wrap;html=1;aspect=fixed;" parent="1" vertex="1">
          <mxGeometry x="1920" y="198" width="40" height="40" as="geometry" />
        </mxCell>
        <mxCell id="t38KisBEw0-XXumSd1B3-170" value="C1(2)/0" style="text;html=1;align=center;verticalAlign=middle;resizable=0;points=[];autosize=1;strokeColor=none;fillColor=none;" parent="1" vertex="1">
          <mxGeometry x="1805" y="370" width="60" height="30" as="geometry" />
        </mxCell>
        <mxCell id="t38KisBEw0-XXumSd1B3-174" value="C2(1)/0" style="text;html=1;align=center;verticalAlign=middle;resizable=0;points=[];autosize=1;strokeColor=none;fillColor=none;" parent="1" vertex="1">
          <mxGeometry x="1805" y="258" width="60" height="30" as="geometry" />
        </mxCell>
        <mxCell id="t38KisBEw0-XXumSd1B3-176" value="C3(5)/0" style="text;html=1;align=center;verticalAlign=middle;resizable=0;points=[];autosize=1;strokeColor=none;fillColor=none;" parent="1" vertex="1">
          <mxGeometry x="1869" y="187" width="60" height="30" as="geometry" />
        </mxCell>
        <mxCell id="t38KisBEw0-XXumSd1B3-187" style="edgeStyle=none;rounded=0;orthogonalLoop=1;jettySize=auto;html=1;exitX=0.5;exitY=0;exitDx=0;exitDy=0;entryX=0.5;entryY=1;entryDx=0;entryDy=0;strokeColor=#CC0000;" parent="1" source="t38KisBEw0-XXumSd1B3-177" target="t38KisBEw0-XXumSd1B3-178" edge="1">
          <mxGeometry relative="1" as="geometry" />
        </mxCell>
        <mxCell id="t38KisBEw0-XXumSd1B3-177" value="47" style="ellipse;whiteSpace=wrap;html=1;aspect=fixed;" parent="1" vertex="1">
          <mxGeometry x="2000" y="319" width="40" height="40" as="geometry" />
        </mxCell>
        <mxCell id="t38KisBEw0-XXumSd1B3-188" style="edgeStyle=none;rounded=0;orthogonalLoop=1;jettySize=auto;html=1;exitX=1;exitY=0.5;exitDx=0;exitDy=0;entryX=0;entryY=0.5;entryDx=0;entryDy=0;strokeColor=#CC0000;" parent="1" source="t38KisBEw0-XXumSd1B3-178" target="t38KisBEw0-XXumSd1B3-179" edge="1">
          <mxGeometry relative="1" as="geometry" />
        </mxCell>
        <mxCell id="t38KisBEw0-XXumSd1B3-178" value="48" style="ellipse;whiteSpace=wrap;html=1;aspect=fixed;" parent="1" vertex="1">
          <mxGeometry x="2000" y="198" width="40" height="40" as="geometry" />
        </mxCell>
        <mxCell id="t38KisBEw0-XXumSd1B3-189" style="edgeStyle=none;rounded=0;orthogonalLoop=1;jettySize=auto;html=1;exitX=0.5;exitY=1;exitDx=0;exitDy=0;strokeColor=#CC0000;" parent="1" source="t38KisBEw0-XXumSd1B3-179" target="t38KisBEw0-XXumSd1B3-180" edge="1">
          <mxGeometry relative="1" as="geometry" />
        </mxCell>
        <mxCell id="t38KisBEw0-XXumSd1B3-179" value="49" style="ellipse;whiteSpace=wrap;html=1;aspect=fixed;" parent="1" vertex="1">
          <mxGeometry x="2080" y="198" width="40" height="40" as="geometry" />
        </mxCell>
        <mxCell id="t38KisBEw0-XXumSd1B3-200" style="edgeStyle=none;rounded=0;orthogonalLoop=1;jettySize=auto;html=1;exitX=1;exitY=0;exitDx=0;exitDy=0;entryX=0;entryY=0.5;entryDx=0;entryDy=0;" parent="1" source="t38KisBEw0-XXumSd1B3-180" target="t38KisBEw0-XXumSd1B3-199" edge="1">
          <mxGeometry relative="1" as="geometry" />
        </mxCell>
        <mxCell id="t38KisBEw0-XXumSd1B3-201" style="edgeStyle=none;rounded=0;orthogonalLoop=1;jettySize=auto;html=1;exitX=1;exitY=1;exitDx=0;exitDy=0;entryX=0;entryY=0.5;entryDx=0;entryDy=0;strokeColor=#CC0000;" parent="1" source="t38KisBEw0-XXumSd1B3-180" target="t38KisBEw0-XXumSd1B3-198" edge="1">
          <mxGeometry relative="1" as="geometry" />
        </mxCell>
        <mxCell id="t38KisBEw0-XXumSd1B3-180" value="50" style="ellipse;whiteSpace=wrap;html=1;aspect=fixed;" parent="1" vertex="1">
          <mxGeometry x="2080" y="320" width="40" height="40" as="geometry" />
        </mxCell>
        <mxCell id="t38KisBEw0-XXumSd1B3-190" value="C4(1)/0" style="text;html=1;align=center;verticalAlign=middle;resizable=0;points=[];autosize=1;strokeColor=none;fillColor=none;" parent="1" vertex="1">
          <mxGeometry x="1885" y="258" width="60" height="30" as="geometry" />
        </mxCell>
        <mxCell id="t38KisBEw0-XXumSd1B3-191" value="C5(1)/0" style="text;html=1;align=center;verticalAlign=middle;resizable=0;points=[];autosize=1;strokeColor=none;fillColor=none;" parent="1" vertex="1">
          <mxGeometry x="1888" y="378" width="60" height="30" as="geometry" />
        </mxCell>
        <mxCell id="t38KisBEw0-XXumSd1B3-192" value="C6(2)/0" style="text;html=1;align=center;verticalAlign=middle;resizable=0;points=[];autosize=1;strokeColor=none;fillColor=none;" parent="1" vertex="1">
          <mxGeometry x="1945" y="428" width="60" height="30" as="geometry" />
        </mxCell>
        <mxCell id="t38KisBEw0-XXumSd1B3-194" value="C7(1)/0" style="text;html=1;align=center;verticalAlign=middle;resizable=0;points=[];autosize=1;strokeColor=none;fillColor=none;" parent="1" vertex="1">
          <mxGeometry x="1965" y="378" width="60" height="30" as="geometry" />
        </mxCell>
        <mxCell id="t38KisBEw0-XXumSd1B3-195" value="C8(3)/0" style="text;html=1;align=center;verticalAlign=middle;resizable=0;points=[];autosize=1;strokeColor=none;fillColor=none;" parent="1" vertex="1">
          <mxGeometry x="1965" y="258" width="60" height="30" as="geometry" />
        </mxCell>
        <mxCell id="t38KisBEw0-XXumSd1B3-196" value="C9(2)/0" style="text;html=1;align=center;verticalAlign=middle;resizable=0;points=[];autosize=1;strokeColor=none;fillColor=none;" parent="1" vertex="1">
          <mxGeometry x="2025" y="187" width="60" height="30" as="geometry" />
        </mxCell>
        <mxCell id="t38KisBEw0-XXumSd1B3-197" value="C10(3)/0" style="text;html=1;align=center;verticalAlign=middle;resizable=0;points=[];autosize=1;strokeColor=none;fillColor=none;" parent="1" vertex="1">
          <mxGeometry x="2035" y="258" width="70" height="30" as="geometry" />
        </mxCell>
        <mxCell id="t38KisBEw0-XXumSd1B3-206" style="edgeStyle=none;rounded=0;orthogonalLoop=1;jettySize=auto;html=1;exitX=1;exitY=0.5;exitDx=0;exitDy=0;entryX=0;entryY=0.5;entryDx=0;entryDy=0;strokeColor=#CC0000;" parent="1" source="t38KisBEw0-XXumSd1B3-198" target="t38KisBEw0-XXumSd1B3-166" edge="1">
          <mxGeometry relative="1" as="geometry" />
        </mxCell>
        <mxCell id="t38KisBEw0-XXumSd1B3-198" value="52" style="ellipse;whiteSpace=wrap;html=1;aspect=fixed;" parent="1" vertex="1">
          <mxGeometry x="2160" y="400" width="40" height="40" as="geometry" />
        </mxCell>
        <mxCell id="t38KisBEw0-XXumSd1B3-204" style="edgeStyle=none;rounded=0;orthogonalLoop=1;jettySize=auto;html=1;exitX=0.5;exitY=1;exitDx=0;exitDy=0;entryX=0.5;entryY=0;entryDx=0;entryDy=0;dashed=1;" parent="1" source="t38KisBEw0-XXumSd1B3-199" target="t38KisBEw0-XXumSd1B3-198" edge="1">
          <mxGeometry relative="1" as="geometry" />
        </mxCell>
        <mxCell id="t38KisBEw0-XXumSd1B3-199" value="51" style="ellipse;whiteSpace=wrap;html=1;aspect=fixed;" parent="1" vertex="1">
          <mxGeometry x="2160" y="238" width="40" height="40" as="geometry" />
        </mxCell>
        <mxCell id="t38KisBEw0-XXumSd1B3-202" value="C11(3)/0" style="text;html=1;align=center;verticalAlign=middle;resizable=0;points=[];autosize=1;strokeColor=none;fillColor=none;" parent="1" vertex="1">
          <mxGeometry x="2115" y="298" width="70" height="30" as="geometry" />
        </mxCell>
        <mxCell id="t38KisBEw0-XXumSd1B3-203" value="C12(3)/0" style="text;html=1;align=center;verticalAlign=middle;resizable=0;points=[];autosize=1;strokeColor=none;fillColor=none;" parent="1" vertex="1">
          <mxGeometry x="2079" y="378" width="70" height="30" as="geometry" />
        </mxCell>
        <mxCell id="t38KisBEw0-XXumSd1B3-215" style="edgeStyle=none;rounded=0;orthogonalLoop=1;jettySize=auto;html=1;exitX=0.5;exitY=1;exitDx=0;exitDy=0;entryX=0.5;entryY=0;entryDx=0;entryDy=0;dashed=1;" parent="1" source="t38KisBEw0-XXumSd1B3-205" target="t38KisBEw0-XXumSd1B3-210" edge="1">
          <mxGeometry relative="1" as="geometry" />
        </mxCell>
        <mxCell id="t38KisBEw0-XXumSd1B3-205" value="54" style="ellipse;whiteSpace=wrap;html=1;aspect=fixed;" parent="1" vertex="1">
          <mxGeometry x="2320" y="318" width="40" height="40" as="geometry" />
        </mxCell>
        <mxCell id="t38KisBEw0-XXumSd1B3-209" value="C13(3)/0" style="text;html=1;align=center;verticalAlign=middle;resizable=0;points=[];autosize=1;strokeColor=none;fillColor=none;" parent="1" vertex="1">
          <mxGeometry x="2185" y="388" width="70" height="30" as="geometry" />
        </mxCell>
        <mxCell id="t38KisBEw0-XXumSd1B3-217" style="edgeStyle=none;rounded=0;orthogonalLoop=1;jettySize=auto;html=1;exitX=1;exitY=0.5;exitDx=0;exitDy=0;entryX=0;entryY=0.5;entryDx=0;entryDy=0;strokeColor=#CC0000;" parent="1" source="t38KisBEw0-XXumSd1B3-210" target="t38KisBEw0-XXumSd1B3-216" edge="1">
          <mxGeometry relative="1" as="geometry" />
        </mxCell>
        <mxCell id="t38KisBEw0-XXumSd1B3-210" value="55" style="ellipse;whiteSpace=wrap;html=1;aspect=fixed;" parent="1" vertex="1">
          <mxGeometry x="2320" y="480" width="40" height="40" as="geometry" />
        </mxCell>
        <mxCell id="t38KisBEw0-XXumSd1B3-213" value="C14(2)/0" style="text;html=1;align=center;verticalAlign=middle;resizable=0;points=[];autosize=1;strokeColor=none;fillColor=none;" parent="1" vertex="1">
          <mxGeometry x="2240" y="348" width="70" height="30" as="geometry" />
        </mxCell>
        <mxCell id="t38KisBEw0-XXumSd1B3-214" value="C15(2)/0" style="text;html=1;align=center;verticalAlign=middle;resizable=0;points=[];autosize=1;strokeColor=none;fillColor=none;" parent="1" vertex="1">
          <mxGeometry x="2240" y="460" width="70" height="30" as="geometry" />
        </mxCell>
        <mxCell id="t38KisBEw0-XXumSd1B3-223" style="edgeStyle=none;rounded=0;orthogonalLoop=1;jettySize=auto;html=1;exitX=1;exitY=0.5;exitDx=0;exitDy=0;entryX=0;entryY=0.5;entryDx=0;entryDy=0;strokeColor=#CC0000;" parent="1" source="t38KisBEw0-XXumSd1B3-216" target="t38KisBEw0-XXumSd1B3-220" edge="1">
          <mxGeometry relative="1" as="geometry" />
        </mxCell>
        <mxCell id="t38KisBEw0-XXumSd1B3-216" value="56" style="ellipse;whiteSpace=wrap;html=1;aspect=fixed;" parent="1" vertex="1">
          <mxGeometry x="2400" y="480" width="40" height="40" as="geometry" />
        </mxCell>
        <mxCell id="t38KisBEw0-XXumSd1B3-218" value="D1(1)/0" style="text;html=1;align=center;verticalAlign=middle;resizable=0;points=[];autosize=1;strokeColor=none;fillColor=none;" parent="1" vertex="1">
          <mxGeometry x="2350" y="469" width="60" height="30" as="geometry" />
        </mxCell>
        <mxCell id="t38KisBEw0-XXumSd1B3-234" style="edgeStyle=none;rounded=0;orthogonalLoop=1;jettySize=auto;html=1;exitX=1;exitY=0;exitDx=0;exitDy=0;entryX=0;entryY=0.5;entryDx=0;entryDy=0;" parent="1" source="t38KisBEw0-XXumSd1B3-219" target="t38KisBEw0-XXumSd1B3-233" edge="1">
          <mxGeometry relative="1" as="geometry" />
        </mxCell>
        <mxCell id="t38KisBEw0-XXumSd1B3-236" value="" style="edgeStyle=none;rounded=0;orthogonalLoop=1;jettySize=auto;html=1;strokeColor=#CC0000;" parent="1" source="t38KisBEw0-XXumSd1B3-219" edge="1">
          <mxGeometry relative="1" as="geometry">
            <mxPoint x="2640" y="420" as="targetPoint" />
          </mxGeometry>
        </mxCell>
        <mxCell id="t38KisBEw0-XXumSd1B3-237" style="edgeStyle=none;rounded=0;orthogonalLoop=1;jettySize=auto;html=1;exitX=1;exitY=1;exitDx=0;exitDy=0;entryX=0;entryY=0.5;entryDx=0;entryDy=0;" parent="1" source="t38KisBEw0-XXumSd1B3-219" target="t38KisBEw0-XXumSd1B3-232" edge="1">
          <mxGeometry relative="1" as="geometry" />
        </mxCell>
        <mxCell id="t38KisBEw0-XXumSd1B3-219" value="58" style="ellipse;whiteSpace=wrap;html=1;aspect=fixed;" parent="1" vertex="1">
          <mxGeometry x="2560" y="400" width="40" height="40" as="geometry" />
        </mxCell>
        <mxCell id="t38KisBEw0-XXumSd1B3-228" style="edgeStyle=none;rounded=0;orthogonalLoop=1;jettySize=auto;html=1;exitX=1;exitY=0;exitDx=0;exitDy=0;entryX=0;entryY=0.5;entryDx=0;entryDy=0;strokeColor=#CC0000;" parent="1" source="t38KisBEw0-XXumSd1B3-220" target="t38KisBEw0-XXumSd1B3-219" edge="1">
          <mxGeometry relative="1" as="geometry" />
        </mxCell>
        <mxCell id="t38KisBEw0-XXumSd1B3-229" style="edgeStyle=none;rounded=0;orthogonalLoop=1;jettySize=auto;html=1;exitX=1;exitY=1;exitDx=0;exitDy=0;entryX=0;entryY=0.5;entryDx=0;entryDy=0;" parent="1" source="t38KisBEw0-XXumSd1B3-220" target="t38KisBEw0-XXumSd1B3-221" edge="1">
          <mxGeometry relative="1" as="geometry" />
        </mxCell>
        <mxCell id="t38KisBEw0-XXumSd1B3-220" value="57" style="ellipse;whiteSpace=wrap;html=1;aspect=fixed;" parent="1" vertex="1">
          <mxGeometry x="2480" y="480" width="40" height="40" as="geometry" />
        </mxCell>
        <mxCell id="t38KisBEw0-XXumSd1B3-230" style="edgeStyle=none;rounded=0;orthogonalLoop=1;jettySize=auto;html=1;exitX=0.5;exitY=0;exitDx=0;exitDy=0;entryX=0.5;entryY=1;entryDx=0;entryDy=0;dashed=1;" parent="1" source="t38KisBEw0-XXumSd1B3-221" target="t38KisBEw0-XXumSd1B3-219" edge="1">
          <mxGeometry relative="1" as="geometry" />
        </mxCell>
        <mxCell id="t38KisBEw0-XXumSd1B3-221" value="59" style="ellipse;whiteSpace=wrap;html=1;aspect=fixed;" parent="1" vertex="1">
          <mxGeometry x="2560" y="560" width="40" height="40" as="geometry" />
        </mxCell>
        <mxCell id="t38KisBEw0-XXumSd1B3-225" value="D2(3)/0" style="text;html=1;align=center;verticalAlign=middle;resizable=0;points=[];autosize=1;strokeColor=none;fillColor=none;" parent="1" vertex="1">
          <mxGeometry x="2430" y="468" width="60" height="30" as="geometry" />
        </mxCell>
        <mxCell id="t38KisBEw0-XXumSd1B3-226" value="D3(2)/0" style="text;html=1;align=center;verticalAlign=middle;resizable=0;points=[];autosize=1;strokeColor=none;fillColor=none;" parent="1" vertex="1">
          <mxGeometry x="2485" y="430" width="60" height="30" as="geometry" />
        </mxCell>
        <mxCell id="t38KisBEw0-XXumSd1B3-227" value="D4(1)/1" style="text;html=1;align=center;verticalAlign=middle;resizable=0;points=[];autosize=1;strokeColor=none;fillColor=none;" parent="1" vertex="1">
          <mxGeometry x="2481" y="530" width="60" height="30" as="geometry" />
        </mxCell>
        <mxCell id="t38KisBEw0-XXumSd1B3-247" style="edgeStyle=none;rounded=0;orthogonalLoop=1;jettySize=auto;html=1;exitX=1;exitY=0.5;exitDx=0;exitDy=0;entryX=0;entryY=0.5;entryDx=0;entryDy=0;strokeColor=#CC0000;" parent="1" source="t38KisBEw0-XXumSd1B3-231" target="t38KisBEw0-XXumSd1B3-246" edge="1">
          <mxGeometry relative="1" as="geometry" />
        </mxCell>
        <mxCell id="t38KisBEw0-XXumSd1B3-231" value="61" style="ellipse;whiteSpace=wrap;html=1;aspect=fixed;" parent="1" vertex="1">
          <mxGeometry x="2640" y="400" width="40" height="40" as="geometry" />
        </mxCell>
        <mxCell id="t38KisBEw0-XXumSd1B3-242" style="edgeStyle=none;rounded=0;orthogonalLoop=1;jettySize=auto;html=1;exitX=0.5;exitY=0;exitDx=0;exitDy=0;entryX=0.5;entryY=1;entryDx=0;entryDy=0;dashed=1;" parent="1" source="t38KisBEw0-XXumSd1B3-232" target="t38KisBEw0-XXumSd1B3-231" edge="1">
          <mxGeometry relative="1" as="geometry" />
        </mxCell>
        <mxCell id="t38KisBEw0-XXumSd1B3-232" value="62" style="ellipse;whiteSpace=wrap;html=1;aspect=fixed;" parent="1" vertex="1">
          <mxGeometry x="2640" y="478" width="40" height="40" as="geometry" />
        </mxCell>
        <mxCell id="t38KisBEw0-XXumSd1B3-241" style="edgeStyle=none;rounded=0;orthogonalLoop=1;jettySize=auto;html=1;exitX=0.5;exitY=1;exitDx=0;exitDy=0;entryX=0.5;entryY=0;entryDx=0;entryDy=0;dashed=1;" parent="1" source="t38KisBEw0-XXumSd1B3-233" target="t38KisBEw0-XXumSd1B3-231" edge="1">
          <mxGeometry relative="1" as="geometry" />
        </mxCell>
        <mxCell id="t38KisBEw0-XXumSd1B3-233" value="60" style="ellipse;whiteSpace=wrap;html=1;aspect=fixed;" parent="1" vertex="1">
          <mxGeometry x="2640" y="318" width="40" height="40" as="geometry" />
        </mxCell>
        <mxCell id="t38KisBEw0-XXumSd1B3-238" value="D5(1)/0" style="text;html=1;align=center;verticalAlign=middle;resizable=0;points=[];autosize=1;strokeColor=none;fillColor=none;" parent="1" vertex="1">
          <mxGeometry x="2570" y="338" width="60" height="30" as="geometry" />
        </mxCell>
        <mxCell id="t38KisBEw0-XXumSd1B3-239" value="D6(1)/0" style="text;html=1;align=center;verticalAlign=middle;resizable=0;points=[];autosize=1;strokeColor=none;fillColor=none;" parent="1" vertex="1">
          <mxGeometry x="2590" y="388" width="60" height="30" as="geometry" />
        </mxCell>
        <mxCell id="t38KisBEw0-XXumSd1B3-240" value="D7(1)/0" style="text;html=1;align=center;verticalAlign=middle;resizable=0;points=[];autosize=1;strokeColor=none;fillColor=none;" parent="1" vertex="1">
          <mxGeometry x="2570" y="461" width="60" height="30" as="geometry" />
        </mxCell>
        <mxCell id="t38KisBEw0-XXumSd1B3-256" style="edgeStyle=none;rounded=0;orthogonalLoop=1;jettySize=auto;html=1;exitX=1;exitY=0.5;exitDx=0;exitDy=0;entryX=0;entryY=0.5;entryDx=0;entryDy=0;strokeColor=#CC0000;" parent="1" source="t38KisBEw0-XXumSd1B3-243" target="t38KisBEw0-XXumSd1B3-255" edge="1">
          <mxGeometry relative="1" as="geometry" />
        </mxCell>
        <mxCell id="t38KisBEw0-XXumSd1B3-243" value="66" style="ellipse;whiteSpace=wrap;html=1;aspect=fixed;" parent="1" vertex="1">
          <mxGeometry x="2800" y="400" width="40" height="40" as="geometry" />
        </mxCell>
        <mxCell id="t38KisBEw0-XXumSd1B3-250" style="edgeStyle=none;rounded=0;orthogonalLoop=1;jettySize=auto;html=1;exitX=1;exitY=0.5;exitDx=0;exitDy=0;entryX=0;entryY=0.5;entryDx=0;entryDy=0;strokeColor=#CC0000;" parent="1" source="t38KisBEw0-XXumSd1B3-244" target="t38KisBEw0-XXumSd1B3-245" edge="1">
          <mxGeometry relative="1" as="geometry" />
        </mxCell>
        <mxCell id="t38KisBEw0-XXumSd1B3-244" value="64" style="ellipse;whiteSpace=wrap;html=1;aspect=fixed;" parent="1" vertex="1">
          <mxGeometry x="2720" y="480" width="40" height="40" as="geometry" />
        </mxCell>
        <mxCell id="t38KisBEw0-XXumSd1B3-251" style="edgeStyle=none;rounded=0;orthogonalLoop=1;jettySize=auto;html=1;exitX=0.5;exitY=0;exitDx=0;exitDy=0;entryX=0.5;entryY=1;entryDx=0;entryDy=0;" parent="1" source="t38KisBEw0-XXumSd1B3-245" target="t38KisBEw0-XXumSd1B3-243" edge="1">
          <mxGeometry relative="1" as="geometry" />
        </mxCell>
        <mxCell id="t38KisBEw0-XXumSd1B3-245" value="65" style="ellipse;whiteSpace=wrap;html=1;aspect=fixed;" parent="1" vertex="1">
          <mxGeometry x="2800" y="480" width="40" height="40" as="geometry" />
        </mxCell>
        <mxCell id="t38KisBEw0-XXumSd1B3-249" style="edgeStyle=none;rounded=0;orthogonalLoop=1;jettySize=auto;html=1;exitX=0.5;exitY=1;exitDx=0;exitDy=0;entryX=0.5;entryY=0;entryDx=0;entryDy=0;strokeColor=#CC0000;" parent="1" source="t38KisBEw0-XXumSd1B3-246" target="t38KisBEw0-XXumSd1B3-244" edge="1">
          <mxGeometry relative="1" as="geometry" />
        </mxCell>
        <mxCell id="t38KisBEw0-XXumSd1B3-246" value="63" style="ellipse;whiteSpace=wrap;html=1;aspect=fixed;" parent="1" vertex="1">
          <mxGeometry x="2720" y="400" width="40" height="40" as="geometry" />
        </mxCell>
        <mxCell id="t38KisBEw0-XXumSd1B3-248" value="D8(2)/0" style="text;html=1;align=center;verticalAlign=middle;resizable=0;points=[];autosize=1;strokeColor=none;fillColor=none;" parent="1" vertex="1">
          <mxGeometry x="2670" y="388" width="60" height="30" as="geometry" />
        </mxCell>
        <mxCell id="t38KisBEw0-XXumSd1B3-252" value="D9(2)/0" style="text;html=1;align=center;verticalAlign=middle;resizable=0;points=[];autosize=1;strokeColor=none;fillColor=none;" parent="1" vertex="1">
          <mxGeometry x="2680" y="448" width="60" height="30" as="geometry" />
        </mxCell>
        <mxCell id="t38KisBEw0-XXumSd1B3-253" value="D10(3)/0" style="text;html=1;align=center;verticalAlign=middle;resizable=0;points=[];autosize=1;strokeColor=none;fillColor=none;" parent="1" vertex="1">
          <mxGeometry x="2745" y="508" width="70" height="30" as="geometry" />
        </mxCell>
        <mxCell id="t38KisBEw0-XXumSd1B3-254" value="D11(2)/0" style="text;html=1;align=center;verticalAlign=middle;resizable=0;points=[];autosize=1;strokeColor=none;fillColor=none;" parent="1" vertex="1">
          <mxGeometry x="2760" y="450" width="70" height="30" as="geometry" />
        </mxCell>
        <mxCell id="t38KisBEw0-XXumSd1B3-260" style="edgeStyle=none;rounded=0;orthogonalLoop=1;jettySize=auto;html=1;exitX=1;exitY=0;exitDx=0;exitDy=0;entryX=0;entryY=0.5;entryDx=0;entryDy=0;strokeColor=#CC0000;" parent="1" source="t38KisBEw0-XXumSd1B3-255" target="t38KisBEw0-XXumSd1B3-259" edge="1">
          <mxGeometry relative="1" as="geometry" />
        </mxCell>
        <mxCell id="t38KisBEw0-XXumSd1B3-261" style="edgeStyle=none;rounded=0;orthogonalLoop=1;jettySize=auto;html=1;exitX=1;exitY=1;exitDx=0;exitDy=0;entryX=0;entryY=0.5;entryDx=0;entryDy=0;" parent="1" source="t38KisBEw0-XXumSd1B3-255" target="t38KisBEw0-XXumSd1B3-258" edge="1">
          <mxGeometry relative="1" as="geometry" />
        </mxCell>
        <mxCell id="t38KisBEw0-XXumSd1B3-255" value="67" style="ellipse;whiteSpace=wrap;html=1;aspect=fixed;" parent="1" vertex="1">
          <mxGeometry x="2880" y="400" width="40" height="40" as="geometry" />
        </mxCell>
        <mxCell id="t38KisBEw0-XXumSd1B3-257" value="D12(3)/0" style="text;html=1;align=center;verticalAlign=middle;resizable=0;points=[];autosize=1;strokeColor=none;fillColor=none;" parent="1" vertex="1">
          <mxGeometry x="2826" y="388" width="70" height="30" as="geometry" />
        </mxCell>
        <mxCell id="t38KisBEw0-XXumSd1B3-264" style="edgeStyle=none;rounded=0;orthogonalLoop=1;jettySize=auto;html=1;exitX=0.5;exitY=0;exitDx=0;exitDy=0;entryX=0.5;entryY=1;entryDx=0;entryDy=0;dashed=1;" parent="1" source="t38KisBEw0-XXumSd1B3-258" target="t38KisBEw0-XXumSd1B3-259" edge="1">
          <mxGeometry relative="1" as="geometry" />
        </mxCell>
        <mxCell id="t38KisBEw0-XXumSd1B3-258" value="69" style="ellipse;whiteSpace=wrap;html=1;aspect=fixed;" parent="1" vertex="1">
          <mxGeometry x="2960" y="480" width="40" height="40" as="geometry" />
        </mxCell>
        <mxCell id="t38KisBEw0-XXumSd1B3-267" style="edgeStyle=none;rounded=0;orthogonalLoop=1;jettySize=auto;html=1;exitX=1;exitY=0;exitDx=0;exitDy=0;entryX=0;entryY=0.5;entryDx=0;entryDy=0;strokeColor=#CC0000;" parent="1" source="t38KisBEw0-XXumSd1B3-259" target="t38KisBEw0-XXumSd1B3-266" edge="1">
          <mxGeometry relative="1" as="geometry" />
        </mxCell>
        <mxCell id="t38KisBEw0-XXumSd1B3-268" style="edgeStyle=none;rounded=0;orthogonalLoop=1;jettySize=auto;html=1;exitX=1;exitY=1;exitDx=0;exitDy=0;entryX=0;entryY=0.5;entryDx=0;entryDy=0;" parent="1" source="t38KisBEw0-XXumSd1B3-259" target="t38KisBEw0-XXumSd1B3-265" edge="1">
          <mxGeometry relative="1" as="geometry" />
        </mxCell>
        <mxCell id="t38KisBEw0-XXumSd1B3-259" value="68" style="ellipse;whiteSpace=wrap;html=1;aspect=fixed;" parent="1" vertex="1">
          <mxGeometry x="2960" y="320" width="40" height="40" as="geometry" />
        </mxCell>
        <mxCell id="t38KisBEw0-XXumSd1B3-262" value="D13(2)/0" style="text;html=1;align=center;verticalAlign=middle;resizable=0;points=[];autosize=1;strokeColor=none;fillColor=none;" parent="1" vertex="1">
          <mxGeometry x="2878" y="348" width="70" height="30" as="geometry" />
        </mxCell>
        <mxCell id="t38KisBEw0-XXumSd1B3-263" value="D14(1)/1" style="text;html=1;align=center;verticalAlign=middle;resizable=0;points=[];autosize=1;strokeColor=none;fillColor=none;" parent="1" vertex="1">
          <mxGeometry x="2872" y="448" width="70" height="30" as="geometry" />
        </mxCell>
        <mxCell id="t38KisBEw0-XXumSd1B3-271" style="edgeStyle=none;rounded=0;orthogonalLoop=1;jettySize=auto;html=1;exitX=0.5;exitY=0;exitDx=0;exitDy=0;entryX=0.5;entryY=1;entryDx=0;entryDy=0;dashed=1;" parent="1" source="t38KisBEw0-XXumSd1B3-265" target="t38KisBEw0-XXumSd1B3-266" edge="1">
          <mxGeometry relative="1" as="geometry" />
        </mxCell>
        <mxCell id="t38KisBEw0-XXumSd1B3-265" value="71" style="ellipse;whiteSpace=wrap;html=1;aspect=fixed;" parent="1" vertex="1">
          <mxGeometry x="3040" y="400" width="40" height="40" as="geometry" />
        </mxCell>
        <mxCell id="t38KisBEw0-XXumSd1B3-273" style="edgeStyle=none;rounded=0;orthogonalLoop=1;jettySize=auto;html=1;exitX=1;exitY=0.5;exitDx=0;exitDy=0;entryX=0;entryY=0.5;entryDx=0;entryDy=0;strokeColor=#CC0000;" parent="1" source="t38KisBEw0-XXumSd1B3-266" target="t38KisBEw0-XXumSd1B3-272" edge="1">
          <mxGeometry relative="1" as="geometry" />
        </mxCell>
        <mxCell id="t38KisBEw0-XXumSd1B3-266" value="70" style="ellipse;whiteSpace=wrap;html=1;aspect=fixed;" parent="1" vertex="1">
          <mxGeometry x="3040" y="240" width="40" height="40" as="geometry" />
        </mxCell>
        <mxCell id="t38KisBEw0-XXumSd1B3-269" value="D15(3)/0" style="text;html=1;align=center;verticalAlign=middle;resizable=0;points=[];autosize=1;strokeColor=none;fillColor=none;" parent="1" vertex="1">
          <mxGeometry x="2961" y="268" width="70" height="30" as="geometry" />
        </mxCell>
        <mxCell id="t38KisBEw0-XXumSd1B3-270" value="D16(3)/0" style="text;html=1;align=center;verticalAlign=middle;resizable=0;points=[];autosize=1;strokeColor=none;fillColor=none;" parent="1" vertex="1">
          <mxGeometry x="2994" y="348" width="70" height="30" as="geometry" />
        </mxCell>
        <mxCell id="t38KisBEw0-XXumSd1B3-277" style="edgeStyle=none;rounded=0;orthogonalLoop=1;jettySize=auto;html=1;exitX=0.5;exitY=1;exitDx=0;exitDy=0;entryX=0.5;entryY=0;entryDx=0;entryDy=0;strokeColor=#CC0000;" parent="1" source="t38KisBEw0-XXumSd1B3-272" target="t38KisBEw0-XXumSd1B3-276" edge="1">
          <mxGeometry relative="1" as="geometry" />
        </mxCell>
        <mxCell id="t38KisBEw0-XXumSd1B3-272" value="72" style="ellipse;whiteSpace=wrap;html=1;aspect=fixed;" parent="1" vertex="1">
          <mxGeometry x="3120" y="240" width="40" height="40" as="geometry" />
        </mxCell>
        <mxCell id="t38KisBEw0-XXumSd1B3-274" value="D17(3)/0" style="text;html=1;align=center;verticalAlign=middle;resizable=0;points=[];autosize=1;strokeColor=none;fillColor=none;" parent="1" vertex="1">
          <mxGeometry x="3065" y="228" width="70" height="30" as="geometry" />
        </mxCell>
        <mxCell id="t38KisBEw0-XXumSd1B3-283" style="edgeStyle=none;rounded=0;orthogonalLoop=1;jettySize=auto;html=1;exitX=0.5;exitY=0;exitDx=0;exitDy=0;entryX=0.5;entryY=1;entryDx=0;entryDy=0;strokeColor=#CC0000;" parent="1" source="t38KisBEw0-XXumSd1B3-275" target="t38KisBEw0-XXumSd1B3-282" edge="1">
          <mxGeometry relative="1" as="geometry" />
        </mxCell>
        <mxCell id="t38KisBEw0-XXumSd1B3-275" value="74" style="ellipse;whiteSpace=wrap;html=1;aspect=fixed;" parent="1" vertex="1">
          <mxGeometry x="3200" y="359" width="40" height="40" as="geometry" />
        </mxCell>
        <mxCell id="t38KisBEw0-XXumSd1B3-278" style="edgeStyle=none;rounded=0;orthogonalLoop=1;jettySize=auto;html=1;exitX=1;exitY=0.5;exitDx=0;exitDy=0;entryX=0;entryY=0.5;entryDx=0;entryDy=0;strokeColor=#CC0000;" parent="1" source="t38KisBEw0-XXumSd1B3-276" target="t38KisBEw0-XXumSd1B3-275" edge="1">
          <mxGeometry relative="1" as="geometry" />
        </mxCell>
        <mxCell id="t38KisBEw0-XXumSd1B3-276" value="73" style="ellipse;whiteSpace=wrap;html=1;aspect=fixed;" parent="1" vertex="1">
          <mxGeometry x="3120" y="359" width="40" height="40" as="geometry" />
        </mxCell>
        <mxCell id="t38KisBEw0-XXumSd1B3-279" value="D18(2)/0" style="text;html=1;align=center;verticalAlign=middle;resizable=0;points=[];autosize=1;strokeColor=none;fillColor=none;" parent="1" vertex="1">
          <mxGeometry x="3080" y="298" width="70" height="30" as="geometry" />
        </mxCell>
        <mxCell id="t38KisBEw0-XXumSd1B3-280" value="D19(1)/0" style="text;html=1;align=center;verticalAlign=middle;resizable=0;points=[];autosize=1;strokeColor=none;fillColor=none;" parent="1" vertex="1">
          <mxGeometry x="3145" y="348" width="70" height="30" as="geometry" />
        </mxCell>
        <mxCell id="t38KisBEw0-XXumSd1B3-289" style="edgeStyle=none;rounded=0;orthogonalLoop=1;jettySize=auto;html=1;exitX=1;exitY=0;exitDx=0;exitDy=0;entryX=0;entryY=0.5;entryDx=0;entryDy=0;" parent="1" source="t38KisBEw0-XXumSd1B3-281" target="t38KisBEw0-XXumSd1B3-287" edge="1">
          <mxGeometry relative="1" as="geometry" />
        </mxCell>
        <mxCell id="t38KisBEw0-XXumSd1B3-290" style="edgeStyle=none;rounded=0;orthogonalLoop=1;jettySize=auto;html=1;exitX=1;exitY=1;exitDx=0;exitDy=0;entryX=0;entryY=0.5;entryDx=0;entryDy=0;strokeColor=#CC0000;" parent="1" source="t38KisBEw0-XXumSd1B3-281" target="j2TgrCyFR8JPK3fn3uZ4-14" edge="1">
          <mxGeometry relative="1" as="geometry">
            <mxPoint x="3360" y="339" as="targetPoint" />
          </mxGeometry>
        </mxCell>
        <mxCell id="t38KisBEw0-XXumSd1B3-281" value="76" style="ellipse;whiteSpace=wrap;html=1;aspect=fixed;" parent="1" vertex="1">
          <mxGeometry x="3280" y="238" width="40" height="40" as="geometry" />
        </mxCell>
        <mxCell id="t38KisBEw0-XXumSd1B3-284" style="edgeStyle=none;rounded=0;orthogonalLoop=1;jettySize=auto;html=1;exitX=1;exitY=0.5;exitDx=0;exitDy=0;entryX=0;entryY=0.5;entryDx=0;entryDy=0;strokeColor=#CC0000;" parent="1" source="t38KisBEw0-XXumSd1B3-282" target="t38KisBEw0-XXumSd1B3-281" edge="1">
          <mxGeometry relative="1" as="geometry" />
        </mxCell>
        <mxCell id="t38KisBEw0-XXumSd1B3-282" value="75" style="ellipse;whiteSpace=wrap;html=1;aspect=fixed;" parent="1" vertex="1">
          <mxGeometry x="3200" y="238" width="40" height="40" as="geometry" />
        </mxCell>
        <mxCell id="t38KisBEw0-XXumSd1B3-285" value="D20(1)/0" style="text;html=1;align=center;verticalAlign=middle;resizable=0;points=[];autosize=1;strokeColor=none;fillColor=none;" parent="1" vertex="1">
          <mxGeometry x="3155" y="298" width="70" height="30" as="geometry" />
        </mxCell>
        <mxCell id="t38KisBEw0-XXumSd1B3-286" value="D21(1)/0" style="text;html=1;align=center;verticalAlign=middle;resizable=0;points=[];autosize=1;strokeColor=none;fillColor=none;" parent="1" vertex="1">
          <mxGeometry x="3225" y="227" width="70" height="30" as="geometry" />
        </mxCell>
        <mxCell id="t38KisBEw0-XXumSd1B3-297" style="edgeStyle=none;rounded=0;orthogonalLoop=1;jettySize=auto;html=1;exitX=0.5;exitY=1;exitDx=0;exitDy=0;entryX=0.5;entryY=0;entryDx=0;entryDy=0;dashed=1;" parent="1" source="t38KisBEw0-XXumSd1B3-287" edge="1">
          <mxGeometry relative="1" as="geometry">
            <mxPoint x="3380" y="319" as="targetPoint" />
          </mxGeometry>
        </mxCell>
        <mxCell id="t38KisBEw0-XXumSd1B3-287" value="77" style="ellipse;whiteSpace=wrap;html=1;aspect=fixed;" parent="1" vertex="1">
          <mxGeometry x="3360" y="160" width="40" height="40" as="geometry" />
        </mxCell>
        <mxCell id="t38KisBEw0-XXumSd1B3-291" value="E1(1)/0" style="text;html=1;align=center;verticalAlign=middle;resizable=0;points=[];autosize=1;strokeColor=none;fillColor=none;" parent="1" vertex="1">
          <mxGeometry x="3280" y="178" width="60" height="30" as="geometry" />
        </mxCell>
        <mxCell id="t38KisBEw0-XXumSd1B3-292" value="E2(1)/0" style="text;html=1;align=center;verticalAlign=middle;resizable=0;points=[];autosize=1;strokeColor=none;fillColor=none;" parent="1" vertex="1">
          <mxGeometry x="3290" y="298" width="60" height="30" as="geometry" />
        </mxCell>
        <mxCell id="E5mfxztyceHF_gy6Gpeg-8" value="&lt;font color=&quot;#0000ff&quot;&gt;0&lt;/font&gt;/&lt;font color=&quot;#cc0000&quot;&gt;0&lt;/font&gt;" style="text;html=1;align=center;verticalAlign=middle;resizable=0;points=[];autosize=1;strokeColor=none;fillColor=none;" parent="1" vertex="1">
          <mxGeometry x="40" y="208" width="40" height="30" as="geometry" />
        </mxCell>
        <mxCell id="E5mfxztyceHF_gy6Gpeg-9" value="&lt;font color=&quot;#0000ff&quot;&gt;1&lt;/font&gt;/&lt;font color=&quot;#cc0000&quot;&gt;1&lt;/font&gt;" style="text;html=1;align=center;verticalAlign=middle;resizable=0;points=[];autosize=1;strokeColor=none;fillColor=none;" parent="1" vertex="1">
          <mxGeometry x="120" y="208" width="40" height="30" as="geometry" />
        </mxCell>
        <mxCell id="E5mfxztyceHF_gy6Gpeg-10" value="&lt;font color=&quot;#3333ff&quot;&gt;2&lt;/font&gt;/&lt;font color=&quot;#cc0000&quot;&gt;2&lt;/font&gt;" style="text;html=1;align=center;verticalAlign=middle;resizable=0;points=[];autosize=1;strokeColor=none;fillColor=none;" parent="1" vertex="1">
          <mxGeometry x="200" y="210" width="40" height="30" as="geometry" />
        </mxCell>
        <mxCell id="E5mfxztyceHF_gy6Gpeg-11" value="&lt;font color=&quot;#0000ff&quot;&gt;3&lt;/font&gt;/&lt;font color=&quot;#cc0000&quot;&gt;3&lt;/font&gt;" style="text;html=1;align=center;verticalAlign=middle;resizable=0;points=[];autosize=1;strokeColor=none;fillColor=none;" parent="1" vertex="1">
          <mxGeometry x="280" y="130" width="40" height="30" as="geometry" />
        </mxCell>
        <mxCell id="E5mfxztyceHF_gy6Gpeg-12" value="&lt;font color=&quot;#0000ff&quot;&gt;3&lt;/font&gt;/&lt;font color=&quot;#cc0000&quot;&gt;3&lt;/font&gt;" style="text;html=1;align=center;verticalAlign=middle;resizable=0;points=[];autosize=1;strokeColor=none;fillColor=none;" parent="1" vertex="1">
          <mxGeometry x="280" y="288" width="40" height="30" as="geometry" />
        </mxCell>
        <mxCell id="E5mfxztyceHF_gy6Gpeg-14" value="&lt;font color=&quot;#0000ff&quot;&gt;4&lt;/font&gt;/&lt;font color=&quot;#cc0000&quot;&gt;4&lt;/font&gt;" style="text;html=1;align=center;verticalAlign=middle;resizable=0;points=[];autosize=1;strokeColor=none;fillColor=none;" parent="1" vertex="1">
          <mxGeometry x="360" y="290" width="40" height="30" as="geometry" />
        </mxCell>
        <mxCell id="E5mfxztyceHF_gy6Gpeg-15" value="&lt;font color=&quot;#0000ff&quot;&gt;5&lt;/font&gt;/&lt;font color=&quot;#cc0000&quot;&gt;5&lt;/font&gt;" style="text;html=1;align=center;verticalAlign=middle;resizable=0;points=[];autosize=1;strokeColor=none;fillColor=none;" parent="1" vertex="1">
          <mxGeometry x="439" y="210" width="40" height="30" as="geometry" />
        </mxCell>
        <mxCell id="E5mfxztyceHF_gy6Gpeg-17" value="&lt;font color=&quot;#0000ff&quot;&gt;7&lt;/font&gt;/&lt;font color=&quot;#cc0000&quot;&gt;7&lt;/font&gt;" style="text;html=1;align=center;verticalAlign=middle;resizable=0;points=[];autosize=1;strokeColor=none;fillColor=none;" parent="1" vertex="1">
          <mxGeometry x="520" y="289" width="40" height="30" as="geometry" />
        </mxCell>
        <mxCell id="E5mfxztyceHF_gy6Gpeg-19" value="&lt;font color=&quot;#0000ff&quot;&gt;5&lt;/font&gt;/&lt;font color=&quot;#cc0000&quot;&gt;5&lt;/font&gt;" style="text;html=1;align=center;verticalAlign=middle;resizable=0;points=[];autosize=1;strokeColor=none;fillColor=none;" parent="1" vertex="1">
          <mxGeometry x="439" y="370" width="40" height="30" as="geometry" />
        </mxCell>
        <mxCell id="E5mfxztyceHF_gy6Gpeg-20" value="&lt;font color=&quot;#0000ff&quot;&gt;7&lt;/font&gt;/&lt;font color=&quot;#cc0000&quot;&gt;7&lt;/font&gt;" style="text;html=1;align=center;verticalAlign=middle;resizable=0;points=[];autosize=1;strokeColor=none;fillColor=none;" parent="1" vertex="1">
          <mxGeometry x="520" y="450" width="40" height="30" as="geometry" />
        </mxCell>
        <mxCell id="E5mfxztyceHF_gy6Gpeg-21" value="&lt;font color=&quot;#0000ff&quot;&gt;8&lt;/font&gt;/&lt;font color=&quot;#cc0000&quot;&gt;8&lt;/font&gt;" style="text;html=1;align=center;verticalAlign=middle;resizable=0;points=[];autosize=1;strokeColor=none;fillColor=none;" parent="1" vertex="1">
          <mxGeometry x="600" y="450" width="40" height="30" as="geometry" />
        </mxCell>
        <mxCell id="E5mfxztyceHF_gy6Gpeg-22" value="&lt;font color=&quot;#0000ff&quot;&gt;10&lt;/font&gt;/&lt;font color=&quot;#cc0000&quot;&gt;10&lt;/font&gt;" style="text;html=1;align=center;verticalAlign=middle;resizable=0;points=[];autosize=1;strokeColor=none;fillColor=none;" parent="1" vertex="1">
          <mxGeometry x="590" y="330" width="50" height="30" as="geometry" />
        </mxCell>
        <mxCell id="E5mfxztyceHF_gy6Gpeg-23" value="&lt;font color=&quot;#0000ff&quot;&gt;11&lt;/font&gt;/&lt;font color=&quot;#cc0000&quot;&gt;11&lt;/font&gt;" style="text;html=1;align=center;verticalAlign=middle;resizable=0;points=[];autosize=1;strokeColor=none;fillColor=none;" parent="1" vertex="1">
          <mxGeometry x="675" y="329" width="50" height="30" as="geometry" />
        </mxCell>
        <mxCell id="E5mfxztyceHF_gy6Gpeg-25" value="&lt;font color=&quot;#0000ff&quot;&gt;12&lt;/font&gt;/&lt;font color=&quot;#cc0000&quot;&gt;12&lt;/font&gt;" style="text;html=1;align=center;verticalAlign=middle;resizable=0;points=[];autosize=1;strokeColor=none;fillColor=none;" parent="1" vertex="1">
          <mxGeometry x="670" y="210" width="50" height="30" as="geometry" />
        </mxCell>
        <mxCell id="E5mfxztyceHF_gy6Gpeg-26" value="&lt;font color=&quot;#0000ff&quot;&gt;14&lt;/font&gt;/&lt;font color=&quot;#cc0000&quot;&gt;14&lt;/font&gt;" style="text;html=1;align=center;verticalAlign=middle;resizable=0;points=[];autosize=1;strokeColor=none;fillColor=none;" parent="1" vertex="1">
          <mxGeometry x="755" y="130" width="50" height="30" as="geometry" />
        </mxCell>
        <mxCell id="E5mfxztyceHF_gy6Gpeg-27" value="&lt;font color=&quot;#0000ff&quot;&gt;14&lt;/font&gt;/&lt;font color=&quot;#cc0000&quot;&gt;14&lt;/font&gt;" style="text;html=1;align=center;verticalAlign=middle;resizable=0;points=[];autosize=1;strokeColor=none;fillColor=none;" parent="1" vertex="1">
          <mxGeometry x="755" y="288" width="50" height="30" as="geometry" />
        </mxCell>
        <mxCell id="E5mfxztyceHF_gy6Gpeg-28" value="&lt;font color=&quot;#0000ff&quot;&gt;15&lt;/font&gt;/&lt;font color=&quot;#cc0000&quot;&gt;15&lt;/font&gt;" style="text;html=1;align=center;verticalAlign=middle;resizable=0;points=[];autosize=1;strokeColor=none;fillColor=none;" parent="1" vertex="1">
          <mxGeometry x="835" y="290" width="50" height="30" as="geometry" />
        </mxCell>
        <mxCell id="E5mfxztyceHF_gy6Gpeg-29" value="&lt;font color=&quot;#0000ff&quot;&gt;17&lt;/font&gt;/&lt;font color=&quot;#cc0000&quot;&gt;17&lt;/font&gt;" style="text;html=1;align=center;verticalAlign=middle;resizable=0;points=[];autosize=1;strokeColor=none;fillColor=none;" parent="1" vertex="1">
          <mxGeometry x="835" y="168" width="50" height="30" as="geometry" />
        </mxCell>
        <mxCell id="E5mfxztyceHF_gy6Gpeg-30" value="&lt;font color=&quot;#0000ff&quot;&gt;19&lt;/font&gt;/&lt;font color=&quot;#cc0000&quot;&gt;19&lt;/font&gt;" style="text;html=1;align=center;verticalAlign=middle;resizable=0;points=[];autosize=1;strokeColor=none;fillColor=none;" parent="1" vertex="1">
          <mxGeometry x="995" y="170" width="50" height="30" as="geometry" />
        </mxCell>
        <mxCell id="E5mfxztyceHF_gy6Gpeg-31" value="&lt;font color=&quot;#0000ff&quot;&gt;18&lt;/font&gt;/&lt;font color=&quot;#cc0000&quot;&gt;18&lt;/font&gt;" style="text;html=1;align=center;verticalAlign=middle;resizable=0;points=[];autosize=1;strokeColor=none;fillColor=none;" parent="1" vertex="1">
          <mxGeometry x="915" y="170" width="50" height="30" as="geometry" />
        </mxCell>
        <mxCell id="E5mfxztyceHF_gy6Gpeg-33" value="&lt;font color=&quot;#0000ff&quot;&gt;20&lt;/font&gt;/&lt;font color=&quot;#cc0000&quot;&gt;20&lt;/font&gt;" style="text;html=1;align=center;verticalAlign=middle;resizable=0;points=[];autosize=1;strokeColor=none;fillColor=none;" parent="1" vertex="1">
          <mxGeometry x="1075" y="90" width="50" height="30" as="geometry" />
        </mxCell>
        <mxCell id="E5mfxztyceHF_gy6Gpeg-34" value="&lt;font color=&quot;#0000ff&quot;&gt;20&lt;/font&gt;/&lt;font color=&quot;#cc0000&quot;&gt;20&lt;/font&gt;" style="text;html=1;align=center;verticalAlign=middle;resizable=0;points=[];autosize=1;strokeColor=none;fillColor=none;" parent="1" vertex="1">
          <mxGeometry x="1075" y="248" width="50" height="30" as="geometry" />
        </mxCell>
        <mxCell id="E5mfxztyceHF_gy6Gpeg-36" value="&lt;font color=&quot;#0000ff&quot;&gt;21&lt;/font&gt;/&lt;font color=&quot;#cc0000&quot;&gt;21&lt;/font&gt;" style="text;html=1;align=center;verticalAlign=middle;resizable=0;points=[];autosize=1;strokeColor=none;fillColor=none;" parent="1" vertex="1">
          <mxGeometry x="1155" y="170" width="50" height="30" as="geometry" />
        </mxCell>
        <mxCell id="E5mfxztyceHF_gy6Gpeg-37" value="&lt;font color=&quot;#0000ff&quot;&gt;21&lt;/font&gt;/&lt;font color=&quot;#cc0000&quot;&gt;21&lt;/font&gt;" style="text;html=1;align=center;verticalAlign=middle;resizable=0;points=[];autosize=1;strokeColor=none;fillColor=none;" parent="1" vertex="1">
          <mxGeometry x="1155" y="330" width="50" height="30" as="geometry" />
        </mxCell>
        <mxCell id="E5mfxztyceHF_gy6Gpeg-38" value="&lt;font color=&quot;#0000ff&quot;&gt;23&lt;/font&gt;/&lt;font color=&quot;#cc0000&quot;&gt;23&lt;/font&gt;" style="text;html=1;align=center;verticalAlign=middle;resizable=0;points=[];autosize=1;strokeColor=none;fillColor=none;" parent="1" vertex="1">
          <mxGeometry x="1235" y="250" width="50" height="30" as="geometry" />
        </mxCell>
        <mxCell id="E5mfxztyceHF_gy6Gpeg-39" value="&lt;font color=&quot;#0000ff&quot;&gt;23&lt;/font&gt;/&lt;font color=&quot;#cc0000&quot;&gt;23&lt;/font&gt;" style="text;html=1;align=center;verticalAlign=middle;resizable=0;points=[];autosize=1;strokeColor=none;fillColor=none;" parent="1" vertex="1">
          <mxGeometry x="1235" y="410" width="50" height="30" as="geometry" />
        </mxCell>
        <mxCell id="E5mfxztyceHF_gy6Gpeg-41" value="&lt;font color=&quot;#0000ff&quot;&gt;24&lt;/font&gt;/&lt;font color=&quot;#cc0000&quot;&gt;24&lt;/font&gt;" style="text;html=1;align=center;verticalAlign=middle;resizable=0;points=[];autosize=1;strokeColor=none;fillColor=none;" parent="1" vertex="1">
          <mxGeometry x="1315" y="410" width="50" height="30" as="geometry" />
        </mxCell>
        <mxCell id="E5mfxztyceHF_gy6Gpeg-42" value="&lt;font color=&quot;#0000ff&quot;&gt;25&lt;/font&gt;/&lt;font color=&quot;#cc0000&quot;&gt;25&lt;/font&gt;" style="text;html=1;align=center;verticalAlign=middle;resizable=0;points=[];autosize=1;strokeColor=none;fillColor=none;" parent="1" vertex="1">
          <mxGeometry x="1315" y="290" width="50" height="30" as="geometry" />
        </mxCell>
        <mxCell id="E5mfxztyceHF_gy6Gpeg-43" value="&lt;font color=&quot;#0000ff&quot;&gt;27&lt;/font&gt;/&lt;font color=&quot;#cc0000&quot;&gt;27&lt;/font&gt;" style="text;html=1;align=center;verticalAlign=middle;resizable=0;points=[];autosize=1;strokeColor=none;fillColor=none;" parent="1" vertex="1">
          <mxGeometry x="1395" y="290" width="50" height="30" as="geometry" />
        </mxCell>
        <mxCell id="E5mfxztyceHF_gy6Gpeg-44" value="&lt;font color=&quot;#0000ff&quot;&gt;30&lt;/font&gt;/&lt;font color=&quot;#cc0000&quot;&gt;30&lt;/font&gt;" style="text;html=1;align=center;verticalAlign=middle;resizable=0;points=[];autosize=1;strokeColor=none;fillColor=none;" parent="1" vertex="1">
          <mxGeometry x="1510" y="290" width="50" height="30" as="geometry" />
        </mxCell>
        <mxCell id="E5mfxztyceHF_gy6Gpeg-48" value="&lt;font color=&quot;#0000ff&quot;&gt;30&lt;/font&gt;/&lt;font color=&quot;#cc0000&quot;&gt;30&lt;/font&gt;" style="text;html=1;align=center;verticalAlign=middle;resizable=0;points=[];autosize=1;strokeColor=none;fillColor=none;" parent="1" vertex="1">
          <mxGeometry x="1475" y="450" width="50" height="30" as="geometry" />
        </mxCell>
        <mxCell id="E5mfxztyceHF_gy6Gpeg-49" value="&lt;font color=&quot;#0000ff&quot;&gt;31&lt;/font&gt;/&lt;font color=&quot;#cc0000&quot;&gt;31&lt;/font&gt;" style="text;html=1;align=center;verticalAlign=middle;resizable=0;points=[];autosize=1;strokeColor=none;fillColor=none;" parent="1" vertex="1">
          <mxGeometry x="1595" y="290" width="50" height="30" as="geometry" />
        </mxCell>
        <mxCell id="E5mfxztyceHF_gy6Gpeg-50" value="&lt;font color=&quot;#0000ff&quot;&gt;32&lt;/font&gt;/&lt;font color=&quot;#cc0000&quot;&gt;32&lt;/font&gt;" style="text;html=1;align=center;verticalAlign=middle;resizable=0;points=[];autosize=1;strokeColor=none;fillColor=none;" parent="1" vertex="1">
          <mxGeometry x="1595" y="408" width="50" height="30" as="geometry" />
        </mxCell>
        <mxCell id="E5mfxztyceHF_gy6Gpeg-51" value="&lt;font color=&quot;#0000ff&quot;&gt;32&lt;/font&gt;/&lt;font color=&quot;#cc0000&quot;&gt;37&lt;/font&gt;" style="text;html=1;align=center;verticalAlign=middle;resizable=0;points=[];autosize=1;strokeColor=none;fillColor=none;" parent="1" vertex="1">
          <mxGeometry x="1675" y="490" width="50" height="30" as="geometry" />
        </mxCell>
        <mxCell id="E5mfxztyceHF_gy6Gpeg-52" value="&lt;font color=&quot;#0000ff&quot;&gt;35&lt;/font&gt;/&lt;font color=&quot;#cc0000&quot;&gt;35&lt;/font&gt;" style="text;html=1;align=center;verticalAlign=middle;resizable=0;points=[];autosize=1;strokeColor=none;fillColor=none;" parent="1" vertex="1">
          <mxGeometry x="1675" y="410" width="50" height="30" as="geometry" />
        </mxCell>
        <mxCell id="E5mfxztyceHF_gy6Gpeg-53" value="&lt;font color=&quot;#0000ff&quot;&gt;37&lt;/font&gt;/&lt;font color=&quot;#cc0000&quot;&gt;37&lt;/font&gt;" style="text;html=1;align=center;verticalAlign=middle;resizable=0;points=[];autosize=1;strokeColor=none;fillColor=none;" parent="1" vertex="1">
          <mxGeometry x="1750" y="410" width="50" height="30" as="geometry" />
        </mxCell>
        <mxCell id="E5mfxztyceHF_gy6Gpeg-55" value="&lt;font color=&quot;#0000ff&quot;&gt;38&lt;/font&gt;/&lt;font color=&quot;#cc0000&quot;&gt;38&lt;/font&gt;" style="text;html=1;align=center;verticalAlign=middle;resizable=0;points=[];autosize=1;strokeColor=none;fillColor=none;" parent="1" vertex="1">
          <mxGeometry x="1835" y="410" width="50" height="30" as="geometry" />
        </mxCell>
        <mxCell id="E5mfxztyceHF_gy6Gpeg-172" value="&lt;font color=&quot;#0000ff&quot;&gt;40&lt;/font&gt;/&lt;font color=&quot;#cc0000&quot;&gt;40&lt;/font&gt;" style="text;html=1;align=center;verticalAlign=middle;resizable=0;points=[];autosize=1;strokeColor=none;fillColor=none;" parent="1" vertex="1">
          <mxGeometry x="1835" y="289" width="50" height="30" as="geometry" />
        </mxCell>
        <mxCell id="E5mfxztyceHF_gy6Gpeg-173" value="&lt;font color=&quot;#0000ff&quot;&gt;41&lt;/font&gt;/&lt;font color=&quot;#cc0000&quot;&gt;41&lt;/font&gt;" style="text;html=1;align=center;verticalAlign=middle;resizable=0;points=[];autosize=1;strokeColor=none;fillColor=none;" parent="1" vertex="1">
          <mxGeometry x="1835" y="170" width="50" height="30" as="geometry" />
        </mxCell>
        <mxCell id="E5mfxztyceHF_gy6Gpeg-174" value="&lt;font color=&quot;#0000ff&quot;&gt;46&lt;/font&gt;/&lt;font color=&quot;#cc0000&quot;&gt;46&lt;/font&gt;" style="text;html=1;align=center;verticalAlign=middle;resizable=0;points=[];autosize=1;strokeColor=none;fillColor=none;" parent="1" vertex="1">
          <mxGeometry x="1915" y="170" width="50" height="30" as="geometry" />
        </mxCell>
        <mxCell id="E5mfxztyceHF_gy6Gpeg-175" value="&lt;font color=&quot;#0000ff&quot;&gt;47&lt;/font&gt;/&lt;font color=&quot;#cc0000&quot;&gt;47&lt;/font&gt;" style="text;html=1;align=center;verticalAlign=middle;resizable=0;points=[];autosize=1;strokeColor=none;fillColor=none;" parent="1" vertex="1">
          <mxGeometry x="1915" y="290" width="50" height="30" as="geometry" />
        </mxCell>
        <mxCell id="E5mfxztyceHF_gy6Gpeg-176" value="&lt;font color=&quot;#0000ff&quot;&gt;48&lt;/font&gt;/&lt;font color=&quot;#cc0000&quot;&gt;48&lt;/font&gt;" style="text;html=1;align=center;verticalAlign=middle;resizable=0;points=[];autosize=1;strokeColor=none;fillColor=none;" parent="1" vertex="1">
          <mxGeometry x="1915" y="408" width="50" height="30" as="geometry" />
        </mxCell>
        <mxCell id="E5mfxztyceHF_gy6Gpeg-177" value="&lt;font color=&quot;#0000ff&quot;&gt;50&lt;/font&gt;/&lt;font color=&quot;#cc0000&quot;&gt;50&lt;/font&gt;" style="text;html=1;align=center;verticalAlign=middle;resizable=0;points=[];autosize=1;strokeColor=none;fillColor=none;" parent="1" vertex="1">
          <mxGeometry x="1995" y="410" width="50" height="30" as="geometry" />
        </mxCell>
        <mxCell id="E5mfxztyceHF_gy6Gpeg-179" value="&lt;font color=&quot;#0000ff&quot;&gt;51&lt;/font&gt;/&lt;font color=&quot;#cc0000&quot;&gt;51&lt;/font&gt;" style="text;html=1;align=center;verticalAlign=middle;resizable=0;points=[];autosize=1;strokeColor=none;fillColor=none;" parent="1" vertex="1">
          <mxGeometry x="1995" y="290" width="50" height="30" as="geometry" />
        </mxCell>
        <mxCell id="E5mfxztyceHF_gy6Gpeg-180" value="&lt;font color=&quot;#0000ff&quot;&gt;54&lt;/font&gt;/&lt;font color=&quot;#cc0000&quot;&gt;54&lt;/font&gt;" style="text;html=1;align=center;verticalAlign=middle;resizable=0;points=[];autosize=1;strokeColor=none;fillColor=none;" parent="1" vertex="1">
          <mxGeometry x="1995" y="170" width="50" height="30" as="geometry" />
        </mxCell>
        <mxCell id="E5mfxztyceHF_gy6Gpeg-181" value="&lt;font color=&quot;#0000ff&quot;&gt;56&lt;/font&gt;/&lt;font color=&quot;#cc0000&quot;&gt;56&lt;/font&gt;" style="text;html=1;align=center;verticalAlign=middle;resizable=0;points=[];autosize=1;strokeColor=none;fillColor=none;" parent="1" vertex="1">
          <mxGeometry x="2075" y="168" width="50" height="30" as="geometry" />
        </mxCell>
        <mxCell id="E5mfxztyceHF_gy6Gpeg-182" value="&lt;font color=&quot;#0000ff&quot;&gt;59&lt;/font&gt;/&lt;font color=&quot;#cc0000&quot;&gt;59&lt;/font&gt;" style="text;html=1;align=center;verticalAlign=middle;resizable=0;points=[];autosize=1;strokeColor=none;fillColor=none;" parent="1" vertex="1">
          <mxGeometry x="2075" y="290" width="50" height="30" as="geometry" />
        </mxCell>
        <mxCell id="E5mfxztyceHF_gy6Gpeg-183" value="&lt;font color=&quot;#0000ff&quot;&gt;62&lt;/font&gt;/&lt;font color=&quot;#cc0000&quot;&gt;62&lt;/font&gt;" style="text;html=1;align=center;verticalAlign=middle;resizable=0;points=[];autosize=1;strokeColor=none;fillColor=none;" parent="1" vertex="1">
          <mxGeometry x="2155" y="208" width="50" height="30" as="geometry" />
        </mxCell>
        <mxCell id="E5mfxztyceHF_gy6Gpeg-184" value="&lt;font color=&quot;#0000ff&quot;&gt;62&lt;/font&gt;/&lt;font color=&quot;#cc0000&quot;&gt;62&lt;/font&gt;" style="text;html=1;align=center;verticalAlign=middle;resizable=0;points=[];autosize=1;strokeColor=none;fillColor=none;" parent="1" vertex="1">
          <mxGeometry x="2155" y="369" width="50" height="30" as="geometry" />
        </mxCell>
        <mxCell id="E5mfxztyceHF_gy6Gpeg-185" value="&lt;font color=&quot;#0000ff&quot;&gt;65&lt;/font&gt;/&lt;font color=&quot;#cc0000&quot;&gt;65&lt;/font&gt;" style="text;html=1;align=center;verticalAlign=middle;resizable=0;points=[];autosize=1;strokeColor=none;fillColor=none;" parent="1" vertex="1">
          <mxGeometry x="2235" y="370" width="50" height="30" as="geometry" />
        </mxCell>
        <mxCell id="E5mfxztyceHF_gy6Gpeg-186" value="&lt;font color=&quot;#0000ff&quot;&gt;67&lt;/font&gt;/&lt;font color=&quot;#cc0000&quot;&gt;67&lt;/font&gt;" style="text;html=1;align=center;verticalAlign=middle;resizable=0;points=[];autosize=1;strokeColor=none;fillColor=none;" parent="1" vertex="1">
          <mxGeometry x="2315" y="289" width="50" height="30" as="geometry" />
        </mxCell>
        <mxCell id="E5mfxztyceHF_gy6Gpeg-187" value="&lt;font color=&quot;#0000ff&quot;&gt;67&lt;/font&gt;/&lt;font color=&quot;#cc0000&quot;&gt;67&lt;/font&gt;" style="text;html=1;align=center;verticalAlign=middle;resizable=0;points=[];autosize=1;strokeColor=none;fillColor=none;" parent="1" vertex="1">
          <mxGeometry x="2315" y="450" width="50" height="30" as="geometry" />
        </mxCell>
        <mxCell id="E5mfxztyceHF_gy6Gpeg-188" value="&lt;font color=&quot;#0000ff&quot;&gt;68&lt;/font&gt;/&lt;font color=&quot;#cc0000&quot;&gt;68&lt;/font&gt;" style="text;html=1;align=center;verticalAlign=middle;resizable=0;points=[];autosize=1;strokeColor=none;fillColor=none;" parent="1" vertex="1">
          <mxGeometry x="2395" y="450" width="50" height="30" as="geometry" />
        </mxCell>
        <mxCell id="E5mfxztyceHF_gy6Gpeg-189" value="&lt;font color=&quot;#0000ff&quot;&gt;71&lt;/font&gt;/&lt;font color=&quot;#cc0000&quot;&gt;71&lt;/font&gt;" style="text;html=1;align=center;verticalAlign=middle;resizable=0;points=[];autosize=1;strokeColor=none;fillColor=none;" parent="1" vertex="1">
          <mxGeometry x="2475" y="450" width="50" height="30" as="geometry" />
        </mxCell>
        <mxCell id="E5mfxztyceHF_gy6Gpeg-190" value="&lt;font color=&quot;#0000ff&quot;&gt;73&lt;/font&gt;/&lt;font color=&quot;#cc0000&quot;&gt;73&lt;/font&gt;" style="text;html=1;align=center;verticalAlign=middle;resizable=0;points=[];autosize=1;strokeColor=none;fillColor=none;" parent="1" vertex="1">
          <mxGeometry x="2555" y="370" width="50" height="30" as="geometry" />
        </mxCell>
        <mxCell id="E5mfxztyceHF_gy6Gpeg-191" value="&lt;font color=&quot;#0000ff&quot;&gt;72&lt;/font&gt;/&lt;font color=&quot;#cc0000&quot;&gt;73&lt;/font&gt;" style="text;html=1;align=center;verticalAlign=middle;resizable=0;points=[];autosize=1;strokeColor=none;fillColor=none;" parent="1" vertex="1">
          <mxGeometry x="2555" y="530" width="50" height="30" as="geometry" />
        </mxCell>
        <mxCell id="E5mfxztyceHF_gy6Gpeg-192" value="&lt;font color=&quot;#0000ff&quot;&gt;74&lt;/font&gt;/&lt;font color=&quot;#cc0000&quot;&gt;74&lt;/font&gt;" style="text;html=1;align=center;verticalAlign=middle;resizable=0;points=[];autosize=1;strokeColor=none;fillColor=none;" parent="1" vertex="1">
          <mxGeometry x="2635" y="288" width="50" height="30" as="geometry" />
        </mxCell>
        <mxCell id="E5mfxztyceHF_gy6Gpeg-193" value="&lt;font color=&quot;#0000ff&quot;&gt;74&lt;/font&gt;/&lt;font color=&quot;#cc0000&quot;&gt;74&lt;/font&gt;" style="text;html=1;align=center;verticalAlign=middle;resizable=0;points=[];autosize=1;strokeColor=none;fillColor=none;" parent="1" vertex="1">
          <mxGeometry x="2634" y="369" width="50" height="30" as="geometry" />
        </mxCell>
        <mxCell id="E5mfxztyceHF_gy6Gpeg-194" value="&lt;font color=&quot;#0000ff&quot;&gt;74&lt;/font&gt;/&lt;font color=&quot;#cc0000&quot;&gt;74&lt;/font&gt;" style="text;html=1;align=center;verticalAlign=middle;resizable=0;points=[];autosize=1;strokeColor=none;fillColor=none;" parent="1" vertex="1">
          <mxGeometry x="2635" y="450" width="50" height="30" as="geometry" />
        </mxCell>
        <mxCell id="E5mfxztyceHF_gy6Gpeg-195" value="&lt;font color=&quot;#0000ff&quot;&gt;76&lt;/font&gt;/&lt;font color=&quot;#cc0000&quot;&gt;76&lt;/font&gt;" style="text;html=1;align=center;verticalAlign=middle;resizable=0;points=[];autosize=1;strokeColor=none;fillColor=none;" parent="1" vertex="1">
          <mxGeometry x="2715" y="369" width="50" height="30" as="geometry" />
        </mxCell>
        <mxCell id="E5mfxztyceHF_gy6Gpeg-196" value="&lt;font color=&quot;#0000ff&quot;&gt;78&lt;/font&gt;/&lt;font color=&quot;#cc0000&quot;&gt;78&lt;/font&gt;" style="text;html=1;align=center;verticalAlign=middle;resizable=0;points=[];autosize=1;strokeColor=none;fillColor=none;" parent="1" vertex="1">
          <mxGeometry x="2715" y="518" width="50" height="30" as="geometry" />
        </mxCell>
        <mxCell id="E5mfxztyceHF_gy6Gpeg-197" value="&lt;font color=&quot;#0000ff&quot;&gt;81&lt;/font&gt;/&lt;font color=&quot;#cc0000&quot;&gt;81&lt;/font&gt;" style="text;html=1;align=center;verticalAlign=middle;resizable=0;points=[];autosize=1;strokeColor=none;fillColor=none;" parent="1" vertex="1">
          <mxGeometry x="2795" y="518" width="50" height="30" as="geometry" />
        </mxCell>
        <mxCell id="E5mfxztyceHF_gy6Gpeg-198" value="&lt;font color=&quot;#0000ff&quot;&gt;83&lt;/font&gt;/&lt;font color=&quot;#cc0000&quot;&gt;83&lt;/font&gt;" style="text;html=1;align=center;verticalAlign=middle;resizable=0;points=[];autosize=1;strokeColor=none;fillColor=none;" parent="1" vertex="1">
          <mxGeometry x="2795" y="368" width="50" height="30" as="geometry" />
        </mxCell>
        <mxCell id="E5mfxztyceHF_gy6Gpeg-199" value="&lt;font color=&quot;#0000ff&quot;&gt;86&lt;/font&gt;/&lt;font color=&quot;#cc0000&quot;&gt;86&lt;/font&gt;" style="text;html=1;align=center;verticalAlign=middle;resizable=0;points=[];autosize=1;strokeColor=none;fillColor=none;" parent="1" vertex="1">
          <mxGeometry x="2875" y="370" width="50" height="30" as="geometry" />
        </mxCell>
        <mxCell id="E5mfxztyceHF_gy6Gpeg-200" value="&lt;font color=&quot;#0000ff&quot;&gt;88&lt;/font&gt;/&lt;font color=&quot;#cc0000&quot;&gt;88&lt;/font&gt;" style="text;html=1;align=center;verticalAlign=middle;resizable=0;points=[];autosize=1;strokeColor=none;fillColor=none;" parent="1" vertex="1">
          <mxGeometry x="2955" y="290" width="50" height="30" as="geometry" />
        </mxCell>
        <mxCell id="E5mfxztyceHF_gy6Gpeg-201" value="&lt;font color=&quot;#0000ff&quot;&gt;87&lt;/font&gt;/&lt;font color=&quot;#cc0000&quot;&gt;88&lt;/font&gt;" style="text;html=1;align=center;verticalAlign=middle;resizable=0;points=[];autosize=1;strokeColor=none;fillColor=none;" parent="1" vertex="1">
          <mxGeometry x="2955" y="448" width="50" height="30" as="geometry" />
        </mxCell>
        <mxCell id="E5mfxztyceHF_gy6Gpeg-202" value="&lt;font color=&quot;#0000ff&quot;&gt;91&lt;/font&gt;/&lt;font color=&quot;#cc0000&quot;&gt;91&lt;/font&gt;" style="text;html=1;align=center;verticalAlign=middle;resizable=0;points=[];autosize=1;strokeColor=none;fillColor=none;" parent="1" vertex="1">
          <mxGeometry x="3035" y="210" width="50" height="30" as="geometry" />
        </mxCell>
        <mxCell id="E5mfxztyceHF_gy6Gpeg-203" value="&lt;font color=&quot;#0000ff&quot;&gt;91&lt;/font&gt;/&lt;font color=&quot;#cc0000&quot;&gt;91&lt;/font&gt;" style="text;html=1;align=center;verticalAlign=middle;resizable=0;points=[];autosize=1;strokeColor=none;fillColor=none;" parent="1" vertex="1">
          <mxGeometry x="3035" y="368" width="50" height="30" as="geometry" />
        </mxCell>
        <mxCell id="E5mfxztyceHF_gy6Gpeg-204" value="&lt;font color=&quot;#0000ff&quot;&gt;94&lt;/font&gt;/&lt;font color=&quot;#cc0000&quot;&gt;94&lt;/font&gt;" style="text;html=1;align=center;verticalAlign=middle;resizable=0;points=[];autosize=1;strokeColor=none;fillColor=none;" parent="1" vertex="1">
          <mxGeometry x="3115" y="210" width="50" height="30" as="geometry" />
        </mxCell>
        <mxCell id="E5mfxztyceHF_gy6Gpeg-205" value="&lt;font color=&quot;#0000ff&quot;&gt;96&lt;/font&gt;/&lt;font color=&quot;#cc0000&quot;&gt;96&lt;/font&gt;" style="text;html=1;align=center;verticalAlign=middle;resizable=0;points=[];autosize=1;strokeColor=none;fillColor=none;" parent="1" vertex="1">
          <mxGeometry x="3114" y="330" width="50" height="30" as="geometry" />
        </mxCell>
        <mxCell id="E5mfxztyceHF_gy6Gpeg-206" value="&lt;font color=&quot;#0000ff&quot;&gt;97&lt;/font&gt;/&lt;font color=&quot;#cc0000&quot;&gt;97&lt;/font&gt;" style="text;html=1;align=center;verticalAlign=middle;resizable=0;points=[];autosize=1;strokeColor=none;fillColor=none;" parent="1" vertex="1">
          <mxGeometry x="3194" y="330" width="50" height="30" as="geometry" />
        </mxCell>
        <mxCell id="E5mfxztyceHF_gy6Gpeg-207" value="&lt;font color=&quot;#0000ff&quot;&gt;98&lt;/font&gt;/&lt;font color=&quot;#cc0000&quot;&gt;98&lt;/font&gt;" style="text;html=1;align=center;verticalAlign=middle;resizable=0;points=[];autosize=1;strokeColor=none;fillColor=none;" parent="1" vertex="1">
          <mxGeometry x="3195" y="210" width="50" height="30" as="geometry" />
        </mxCell>
        <mxCell id="E5mfxztyceHF_gy6Gpeg-208" value="&lt;font color=&quot;#0000ff&quot;&gt;99&lt;/font&gt;/&lt;font color=&quot;#cc0000&quot;&gt;99&lt;/font&gt;" style="text;html=1;align=center;verticalAlign=middle;resizable=0;points=[];autosize=1;strokeColor=none;fillColor=none;" parent="1" vertex="1">
          <mxGeometry x="3275" y="210" width="50" height="30" as="geometry" />
        </mxCell>
        <mxCell id="E5mfxztyceHF_gy6Gpeg-209" value="&lt;font color=&quot;#0000ff&quot;&gt;100&lt;/font&gt;/&lt;font color=&quot;#cc0000&quot;&gt;100&lt;/font&gt;" style="text;html=1;align=center;verticalAlign=middle;resizable=0;points=[];autosize=1;strokeColor=none;fillColor=none;" parent="1" vertex="1">
          <mxGeometry x="3345" y="130" width="70" height="30" as="geometry" />
        </mxCell>
        <mxCell id="E5mfxztyceHF_gy6Gpeg-211" value="&lt;font color=&quot;#0000ff&quot;&gt;100&lt;/font&gt;/&lt;font color=&quot;#cc0000&quot;&gt;100&lt;/font&gt;" style="text;html=1;align=center;verticalAlign=middle;resizable=0;points=[];autosize=1;strokeColor=none;fillColor=none;" parent="1" vertex="1">
          <mxGeometry x="3342" y="288" width="70" height="30" as="geometry" />
        </mxCell>
        <mxCell id="SZzYf9XDwyuOfT9pLBlN-1" value="/" style="text;html=1;align=center;verticalAlign=middle;resizable=0;points=[];autosize=1;strokeColor=none;fillColor=none;" parent="1" vertex="1">
          <mxGeometry x="3085" y="28" width="30" height="30" as="geometry" />
        </mxCell>
        <mxCell id="U7PHoWRroNFKcEzjkEco-4" value="&lt;font color=&quot;#0000ff&quot;&gt;30&lt;/font&gt;/&lt;font color=&quot;#cc0000&quot;&gt;30&lt;/font&gt;" style="text;html=1;align=center;verticalAlign=middle;resizable=0;points=[];autosize=1;strokeColor=none;fillColor=none;" parent="1" vertex="1">
          <mxGeometry x="1475" y="210" width="50" height="30" as="geometry" />
        </mxCell>
        <mxCell id="U7PHoWRroNFKcEzjkEco-5" value="&lt;font color=&quot;#0000ff&quot;&gt;30&lt;/font&gt;/&lt;font color=&quot;#cc0000&quot;&gt;30&lt;/font&gt;" style="text;html=1;align=center;verticalAlign=middle;resizable=0;points=[];autosize=1;strokeColor=none;fillColor=none;" parent="1" vertex="1">
          <mxGeometry x="1477" y="370" width="50" height="30" as="geometry" />
        </mxCell>
        <mxCell id="I2YBqmgSYUAXV5zWTRnH-1" value="&lt;font color=&quot;#0000ff&quot;&gt;32&lt;/font&gt;/&lt;font color=&quot;#cc0000&quot;&gt;37&lt;/font&gt;" style="text;html=1;align=center;verticalAlign=middle;resizable=0;points=[];autosize=1;strokeColor=none;fillColor=none;" parent="1" vertex="1">
          <mxGeometry x="1675" y="209" width="50" height="30" as="geometry" />
        </mxCell>
        <mxCell id="j2TgrCyFR8JPK3fn3uZ4-14" value="78" style="whiteSpace=wrap;html=1;aspect=fixed;" vertex="1" parent="1">
          <mxGeometry x="3359" y="320" width="40" height="40" as="geometry" />
        </mxCell>
      </root>
    </mxGraphModel>
  </diagram>
</mxfile>
